<svg width="382" height="405" viewBox="0 0 382 405" fill="none" xmlns="http://www.w3.org/2000/svg">
<path d="M154.416 149.266C148.716 143.936 140.666 141.216 132.906 142.006C127.646 142.536 121.916 145.346 120.756 150.506C120.206 152.966 120.396 156.216 118.076 157.186C115.806 158.126 113.606 155.786 111.266 155.006C107.376 153.706 102.946 158.146 104.256 162.036C104.856 163.806 106.346 165.346 106.226 167.206C106.056 169.736 102.926 171.056 100.416 170.666C97.9056 170.276 95.6956 168.806 93.2356 168.186C90.7756 167.556 87.5856 168.186 86.7256 170.576C85.9556 172.716 87.2856 175.596 85.6056 177.126C84.8856 177.786 83.8456 177.916 82.8756 178.016C61.5656 180.036 38.1056 183.856 40.4856 187.646C41.1356 188.676 42.8056 188.356 44.0256 188.336C89.3756 187.626 130.566 186.946 175.906 188.336" fill="white"/>
<g opacity="0.8">
<path d="M244.645 142.757C278.185 143.217 311.715 143.667 345.255 144.127C346.385 144.147 349.925 143.047 343.815 139.107C338.635 135.767 322.275 138.767 322.275 138.767C322.275 138.767 326.085 137.237 326.065 135.267C326.045 133.297 324.555 131.567 322.765 130.747C320.975 129.927 318.925 129.867 316.965 129.987C312.965 130.217 308.995 131.107 305.275 132.607C306.855 131.637 307.335 129.257 306.255 127.747C305.175 126.237 302.775 125.927 301.345 127.097C303.855 123.697 307.745 108.607 295.805 101.957C280.835 93.627 269.465 100.477 267.045 105.497C265.815 100.577 260.165 96.847 256.445 95.927C247.965 93.817 242.435 94.447 234.515 98.147C231.715 99.457 227.965 103.927 226.095 106.397C223.175 110.267 222.725 115.407 222.565 120.247C222.445 123.877 222.425 127.517 222.515 131.147" fill="white"/>
</g>
<g opacity="0.5">
<path d="M167.035 74.0953C161.855 70.7553 145.495 73.7553 145.495 73.7553C145.495 73.7553 149.305 72.2253 149.285 70.2553C149.265 68.2853 147.775 66.5553 145.985 65.7353C144.195 64.9153 142.145 64.8553 140.185 64.9753C136.185 65.2053 132.215 66.0953 128.495 67.5953C130.075 66.6253 130.555 64.2453 129.475 62.7353C128.395 61.2253 125.995 60.9153 124.565 62.0853C127.075 58.6853 130.965 43.5953 119.025 36.9453C104.055 28.6153 92.6854 35.4653 90.2654 40.4853C89.0354 35.5653 83.3854 31.8353 79.6654 30.9153C71.1854 28.8053 65.6554 29.4353 57.7354 33.1353C54.9354 34.4453 51.1854 38.9153 49.3154 41.3853C48.1654 42.9153 47.3954 44.6453 46.8854 46.4653C44.7254 46.3453 42.5254 46.7953 40.4554 47.9453C31.6254 52.8553 34.4954 64.0153 36.3554 66.5253C35.2954 65.6553 33.5154 65.8853 32.7254 67.0053C31.9254 68.1153 32.2854 69.8753 33.4554 70.5953C30.7054 69.4853 27.7754 68.8353 24.8154 68.6653C23.3654 68.5853 21.8554 68.6253 20.5254 69.2253C19.1954 69.8253 18.0954 71.1053 18.0854 72.5653C18.0754 74.0253 20.8854 75.1553 20.8854 75.1553C20.8854 75.1553 8.78538 72.9353 4.96538 75.4053C0.445378 78.3153 3.06538 79.1353 3.90538 79.1153C28.6954 78.7753 53.4854 78.4353 78.2754 78.1053L77.9254 77.8853C108.115 78.2953 138.305 78.7053 168.495 79.1153C169.605 79.1353 173.155 78.0353 167.035 74.0953Z" fill="white"/>
</g>
<path d="M193.535 318.617C193.535 318.617 -1.34486 319.947 0.235142 368.167C1.79514 415.947 107.935 378.947 181.365 385.617C254.795 392.287 330.905 419.157 370.235 392.557C409.565 365.947 344.835 311.277 193.535 318.617Z" fill="#D9E8FF"/>
<path d="M290.425 389.366C290.425 389.366 275.295 376.926 283.445 372.146C291.595 367.366 295.175 383.116 295.175 383.116C295.175 383.116 288.875 362.616 297.865 362.366C306.855 362.116 303.105 381.366 303.105 381.366C303.105 381.366 304.485 367.636 310.855 369.506C317.225 371.376 312.605 382.116 312.605 382.116C312.605 382.116 316.365 373.196 320.355 377.406C324.355 381.616 313.855 389.366 313.855 389.366H290.425Z" fill="#BDD0FF"/>
<path d="M292.424 393.694C292.424 393.694 286.424 385.274 289.924 384.024C293.424 382.774 296.094 388.194 296.094 388.194C296.094 388.194 294.764 381.624 298.844 381.444C302.384 381.294 302.274 387.554 302.274 387.554C302.274 387.554 304.334 380.254 307.884 381.984C311.634 383.814 309.174 388.604 309.174 388.604C309.174 388.604 313.354 384.694 315.504 386.774C317.884 389.064 312.504 393.694 312.504 393.694H292.424Z" fill="#D9E8FF"/>
<path d="M31.0951 384.597C31.0951 384.597 21.9951 377.117 26.8951 374.237C31.7951 371.357 33.9451 380.837 33.9451 380.837C33.9451 380.837 30.1651 368.507 35.5651 368.357C40.9751 368.207 38.7151 379.787 38.7151 379.787C38.7151 379.787 39.5451 371.527 43.3751 372.657C47.2051 373.777 44.4251 380.237 44.4251 380.237C44.4251 380.237 46.6851 374.867 49.0851 377.407C51.4851 379.937 45.1751 384.597 45.1751 384.597H31.0951Z" fill="#BDD0FF"/>
<path d="M32.3054 387.198C32.3054 387.198 28.6954 382.138 30.8054 381.388C32.9154 380.638 34.5154 383.898 34.5154 383.898C34.5154 383.898 33.7154 379.948 36.1654 379.838C38.2954 379.748 38.2254 383.508 38.2254 383.508C38.2254 383.508 39.4654 379.118 41.6054 380.158C43.8654 381.258 42.3854 384.138 42.3854 384.138C42.3854 384.138 44.9054 381.788 46.1954 383.038C47.6254 384.418 44.3954 387.198 44.3954 387.198H32.3054Z" fill="#D9E8FF"/>
<path d="M187.055 267.775L199.815 263.195C197.175 253.655 192.455 244.805 186.015 237.285L175.095 245.325C171.485 241.275 167.245 237.745 162.445 234.905L168.245 222.625C164.025 220.235 159.515 218.235 154.685 216.755C149.855 215.285 144.995 214.425 140.155 214.055L138.115 227.475C132.545 227.155 127.055 227.715 121.805 229.065L117.225 216.305C107.685 218.945 98.835 223.665 91.315 230.105L99.355 241.025C95.305 244.635 91.775 248.875 88.935 253.675L76.655 247.875C74.265 252.095 72.265 256.605 70.785 261.435C69.315 266.265 68.455 271.125 68.085 275.965L81.505 278.005C81.185 283.575 81.745 289.055 83.095 294.315L70.335 298.895C72.975 308.435 77.695 317.285 84.135 324.805L95.055 316.765C98.665 320.815 102.905 324.345 107.705 327.185L101.905 339.465C106.125 341.855 110.635 343.855 115.465 345.335C120.295 346.805 125.155 347.665 129.995 348.035L132.035 334.615C137.605 334.935 143.085 334.375 148.345 333.025L152.925 345.785C162.465 343.145 171.315 338.425 178.835 331.985L170.795 321.065C174.845 317.455 178.375 313.215 181.215 308.415L193.495 314.215C195.885 309.995 197.885 305.485 199.365 300.655C200.835 295.825 201.695 290.965 202.065 286.125L188.645 284.085C188.955 278.515 188.405 273.035 187.055 267.775ZM126.415 309.495C110.705 304.705 101.855 288.085 106.645 272.375C111.435 256.665 128.055 247.815 143.765 252.605C159.475 257.395 168.325 274.015 163.535 289.725C158.735 305.435 142.125 314.285 126.415 309.495Z" fill="#D2E4FF"/>
<path d="M136.675 203.315L139.175 202.415C138.655 200.545 137.735 198.805 136.465 197.335L134.325 198.915C133.615 198.115 132.785 197.425 131.845 196.875L132.985 194.465C132.155 193.995 131.275 193.605 130.325 193.315C129.375 193.025 128.425 192.855 127.475 192.785L127.075 195.415C125.985 195.355 124.905 195.465 123.875 195.725L122.975 193.225C121.105 193.745 119.365 194.665 117.895 195.935L119.475 198.075C118.675 198.785 117.985 199.615 117.435 200.555L115.025 199.415C114.555 200.245 114.165 201.125 113.875 202.075C113.585 203.025 113.415 203.975 113.345 204.925L115.975 205.325C115.915 206.415 116.025 207.495 116.285 208.525L113.785 209.425C114.305 211.295 115.225 213.035 116.495 214.505L118.635 212.925C119.345 213.725 120.175 214.415 121.115 214.965L119.975 217.375C120.805 217.845 121.685 218.235 122.635 218.525C123.585 218.815 124.535 218.985 125.485 219.055L125.885 216.425C126.975 216.485 128.055 216.375 129.085 216.115L129.985 218.615C131.855 218.095 133.595 217.175 135.065 215.905L133.485 213.765C134.285 213.055 134.975 212.225 135.525 211.285L137.935 212.425C138.405 211.595 138.795 210.715 139.085 209.765C139.375 208.815 139.545 207.865 139.615 206.915L136.985 206.515C137.055 205.425 136.945 204.345 136.675 203.315ZM124.785 211.495C121.705 210.555 119.965 207.295 120.905 204.215C121.845 201.135 125.105 199.395 128.185 200.335C131.265 201.275 133.005 204.535 132.065 207.615C131.125 210.705 127.865 212.435 124.785 211.495Z" fill="#D9ECFF"/>
<path d="M156.065 105.416L161.215 103.566C160.145 99.7161 158.245 96.1461 155.645 93.1161L151.245 96.3561C149.785 94.7261 148.075 93.2961 146.145 92.1561L148.485 87.2061C146.785 86.2461 144.965 85.4361 143.015 84.8361C141.065 84.2461 139.105 83.8961 137.155 83.7461L136.335 89.1561C134.085 89.0261 131.875 89.2561 129.755 89.7961L127.905 84.6461C124.055 85.7161 120.485 87.6161 117.455 90.2161L120.695 94.6161C119.065 96.0761 117.635 97.7861 116.495 99.7161L111.545 97.3761C110.585 99.0761 109.775 100.896 109.175 102.846C108.585 104.796 108.235 106.756 108.085 108.706L113.495 109.526C113.365 111.776 113.595 113.986 114.135 116.106L108.985 117.956C110.055 121.806 111.955 125.376 114.555 128.406L118.955 125.166C120.415 126.796 122.125 128.226 124.055 129.366L121.715 134.316C123.415 135.276 125.235 136.086 127.185 136.686C129.135 137.276 131.095 137.626 133.045 137.776L133.865 132.366C136.115 132.496 138.325 132.266 140.445 131.726L142.295 136.876C146.145 135.806 149.715 133.906 152.745 131.306L149.505 126.906C151.135 125.446 152.565 123.736 153.705 121.806L158.655 124.146C159.615 122.446 160.425 120.626 161.025 118.676C161.615 116.726 161.965 114.766 162.115 112.816L156.705 111.996C156.835 109.746 156.605 107.536 156.065 105.416ZM131.615 122.236C125.285 120.306 121.715 113.606 123.645 107.266C125.575 100.936 132.275 97.3661 138.615 99.2961C144.945 101.226 148.515 107.926 146.585 114.266C144.645 120.596 137.945 124.166 131.615 122.236Z" fill="#D9ECFF"/>
<path d="M290.755 162.875L294.025 161.705C293.345 159.265 292.145 156.995 290.485 155.065L287.685 157.125C286.765 156.085 285.675 155.185 284.445 154.455L285.935 151.315C284.855 150.705 283.695 150.185 282.465 149.815C281.225 149.435 279.985 149.215 278.745 149.125L278.225 152.565C276.795 152.485 275.395 152.625 274.045 152.975L272.875 149.705C270.435 150.385 268.165 151.585 266.235 153.245L268.295 156.045C267.255 156.965 266.355 158.055 265.625 159.285L262.485 157.795C261.875 158.875 261.355 160.035 260.985 161.265C260.605 162.505 260.385 163.745 260.295 164.985L263.735 165.505C263.655 166.935 263.795 168.335 264.145 169.685L260.875 170.855C261.555 173.295 262.755 175.565 264.415 177.495L267.215 175.435C268.135 176.475 269.225 177.375 270.455 178.105L268.975 181.245C270.055 181.855 271.215 182.375 272.445 182.745C273.685 183.125 274.925 183.345 276.165 183.435L276.685 179.995C278.115 180.075 279.515 179.935 280.865 179.585L282.035 182.855C284.475 182.175 286.745 180.975 288.675 179.315L286.615 176.515C287.655 175.595 288.555 174.505 289.285 173.275L292.425 174.765C293.035 173.685 293.555 172.525 293.925 171.295C294.305 170.055 294.525 168.815 294.615 167.575L291.175 167.055C291.245 165.625 291.095 164.225 290.755 162.875ZM275.225 173.565C271.205 172.335 268.935 168.085 270.165 164.055C271.395 160.035 275.645 157.765 279.675 158.995C283.695 160.225 285.965 164.475 284.735 168.505C283.505 172.525 279.245 174.785 275.225 173.565Z" fill="#D9ECFF"/>
<path d="M275.895 189.995L277.235 189.515C276.955 188.515 276.465 187.585 275.785 186.795L274.635 187.645C274.255 187.215 273.805 186.845 273.305 186.545L273.915 185.255C273.475 185.005 272.995 184.795 272.485 184.635C271.975 184.485 271.465 184.395 270.955 184.355L270.745 185.765C270.155 185.735 269.585 185.795 269.035 185.935L268.555 184.595C267.555 184.875 266.625 185.365 265.835 186.045L266.685 187.195C266.255 187.575 265.885 188.025 265.585 188.525L264.295 187.915C264.045 188.355 263.835 188.835 263.675 189.345C263.525 189.855 263.435 190.365 263.395 190.875L264.805 191.085C264.775 191.675 264.835 192.245 264.975 192.795L263.635 193.275C263.915 194.275 264.405 195.205 265.085 195.995L266.235 195.145C266.615 195.575 267.065 195.945 267.565 196.245L266.955 197.535C267.395 197.785 267.875 197.995 268.385 198.155C268.895 198.305 269.405 198.395 269.915 198.435L270.125 197.025C270.715 197.055 271.285 196.995 271.835 196.855L272.315 198.195C273.315 197.915 274.245 197.425 275.035 196.745L274.185 195.595C274.615 195.215 274.985 194.765 275.285 194.265L276.575 194.875C276.825 194.435 277.035 193.955 277.195 193.445C277.345 192.935 277.435 192.425 277.475 191.915L276.065 191.705C276.095 191.125 276.035 190.545 275.895 189.995ZM269.525 194.385C267.875 193.885 266.945 192.135 267.445 190.485C267.945 188.835 269.695 187.905 271.345 188.405C272.995 188.905 273.925 190.655 273.425 192.305C272.925 193.955 271.175 194.885 269.525 194.385Z" fill="#D9ECFF"/>
<path d="M123.275 319.805C101.875 313.285 89.8149 290.645 96.3349 269.245C102.855 247.845 125.495 235.785 146.895 242.305C168.295 248.825 180.355 271.465 173.835 292.865C167.305 314.265 144.675 326.325 123.275 319.805Z" stroke="white" stroke-miterlimit="10"/>
<path d="M272.935 280.636L279.855 278.156C278.425 272.986 275.865 268.186 272.375 264.106L266.455 268.466C264.495 266.266 262.195 264.356 259.595 262.816L262.735 256.156C260.445 254.856 258.005 253.776 255.385 252.976C252.765 252.176 250.125 251.716 247.505 251.516L246.405 258.796C243.385 258.626 240.415 258.926 237.565 259.656L235.085 252.736C229.915 254.166 225.115 256.726 221.035 260.216L225.395 266.136C223.195 268.096 221.285 270.396 219.745 272.996L213.085 269.856C211.785 272.146 210.705 274.586 209.905 277.206C209.105 279.826 208.645 282.466 208.445 285.086L215.725 286.186C215.555 289.206 215.855 292.176 216.585 295.026L209.665 297.506C211.095 302.676 213.655 307.476 217.145 311.556L223.065 307.196C225.025 309.396 227.325 311.306 229.925 312.846L226.785 319.506C229.075 320.806 231.515 321.886 234.135 322.686C236.755 323.486 239.395 323.946 242.015 324.146L243.115 316.866C246.135 317.036 249.105 316.736 251.955 316.006L254.435 322.926C259.605 321.496 264.405 318.936 268.485 315.446L264.125 309.526C266.325 307.566 268.235 305.266 269.775 302.666L276.435 305.806C277.735 303.516 278.815 301.076 279.615 298.456C280.415 295.836 280.875 293.196 281.075 290.576L273.795 289.476C273.975 286.466 273.665 283.486 272.935 280.636ZM240.055 303.256C231.535 300.656 226.735 291.646 229.335 283.136C231.935 274.616 240.945 269.816 249.455 272.416C257.975 275.016 262.775 284.026 260.175 292.536C257.585 301.056 248.575 305.856 240.055 303.256Z" fill="#7FA8E5"/>
<path d="M244.745 310.076C242.605 310.076 240.425 309.766 238.275 309.106C232.595 307.376 227.925 303.536 225.135 298.286C222.345 293.046 221.755 287.026 223.495 281.346C225.225 275.666 229.065 270.996 234.305 268.206C239.545 265.416 245.565 264.826 251.245 266.556C262.975 270.136 269.605 282.586 266.035 294.306C263.115 303.896 254.275 310.076 244.745 310.076ZM238.435 308.586C243.975 310.276 249.845 309.706 254.965 306.986C260.075 304.266 263.825 299.706 265.515 294.166C269.005 282.726 262.535 270.576 251.095 267.086C245.555 265.396 239.685 265.966 234.565 268.686C229.455 271.406 225.705 275.966 224.015 281.506C222.325 287.046 222.895 292.916 225.615 298.036C228.335 303.156 232.895 306.896 238.435 308.586Z" fill="#5690D6"/>
<path opacity="0.55" d="M143.445 342.219C143.445 345.069 121.655 347.379 94.765 347.379C67.885 347.379 46.085 345.069 46.085 342.219C46.085 339.369 67.875 337.059 94.765 337.059C121.655 337.049 143.445 339.359 143.445 342.219Z" fill="#D9E8FF"/>
<path d="M77.7748 340.458C77.7748 340.458 45.0548 340.458 37.1248 340.458C29.1948 340.458 30.4848 331.048 52.5448 335.238C47.1348 332.768 47.0948 329.448 47.5548 328.568C47.9748 327.758 49.5248 327.238 50.4348 327.308C53.2448 327.548 55.3748 329.268 57.8348 330.648C53.3848 327.758 50.6248 322.448 50.8048 317.138C50.8548 315.678 51.1648 314.118 52.2448 313.128C53.4548 312.018 55.4148 311.278 57.0248 311.598C60.0048 312.188 65.4748 317.158 67.6548 319.268C56.5348 309.038 52.3048 292.928 59.4248 289.248C71.4048 283.058 80.4648 318.118 80.4648 318.118C80.4648 318.118 74.5048 291.768 84.5048 291.618C94.5048 291.468 86.3748 322.228 86.3748 322.228" fill="#ACC9F9"/>
<path d="M74.1844 321.468C75.4944 321.468 76.7444 321.688 77.9244 322.088C78.2044 312.318 86.2044 304.488 96.0444 304.488C106.054 304.488 114.174 312.608 114.174 322.618C114.174 323.078 114.154 323.528 114.114 323.978C115.864 321.028 119.074 319.038 122.754 319.038C128.304 319.038 132.794 323.538 132.794 329.078C132.794 329.868 132.694 330.628 132.524 331.358C133.564 330.778 134.754 330.448 136.024 330.448C140.004 330.448 143.224 333.668 143.224 337.648C143.224 341.628 140.004 344.848 136.024 344.848C132.044 344.848 79.2444 344.848 74.1844 344.848C67.7244 344.848 62.4844 339.608 62.4844 333.148C62.4844 326.708 67.7244 321.468 74.1844 321.468Z" fill="white"/>
<path opacity="0.55" d="M304.865 336.675C304.865 338.685 284.255 340.315 258.825 340.315C233.395 340.315 212.785 338.685 212.785 336.675C212.785 334.665 233.395 333.035 258.825 333.035C284.255 333.035 304.865 334.665 304.865 336.675Z" fill="#D9E8FF"/>
<path d="M273.886 307.797C271.356 299.077 273.236 289.667 276.226 281.087C276.946 279.027 277.766 276.917 279.306 275.377C280.096 274.587 281.186 273.937 282.276 274.157C283.886 274.487 284.556 276.397 284.736 278.027C285.876 288.307 279.106 297.737 277.386 307.937" fill="#BDD0FF"/>
<path d="M266.675 303.418C266.175 300.828 265.485 298.248 264.255 295.918C263.025 293.588 261.225 291.498 258.885 290.268C257.845 289.718 256.465 289.398 255.595 290.168C254.635 291.018 254.945 292.598 255.515 293.748C258.625 300.068 266.575 302.898 269.605 309.248" fill="#BDD0FF"/>
<path d="M270.346 308.565C268.376 304.885 266.466 301.125 265.376 297.085C264.286 293.055 264.056 288.685 265.416 284.735C265.836 283.515 266.876 282.125 268.096 282.545C268.546 282.695 268.876 283.075 269.166 283.455C271.436 286.445 272.306 290.255 272.716 293.985C273.126 297.715 273.136 301.505 273.956 305.165C274.076 305.715 274.236 306.275 274.616 306.685C274.996 307.095 275.686 307.265 276.126 306.925C276.376 306.735 276.496 306.425 276.586 306.125C277.106 304.495 285.196 287.695 292.526 286.515C293.116 286.415 293.726 286.355 294.316 286.455C303.506 287.985 282.806 307.185 282.646 310.045C290.136 303.625 291.726 302.445 295.136 301.825C297.766 301.355 302.346 303.685 300.836 306.895C299.796 309.115 297.196 310.115 294.786 310.595C292.156 311.115 289.456 311.285 286.876 312.025C284.296 312.755 281.756 314.165 280.446 316.505" fill="#BDD0FF"/>
<path d="M291.035 311.716C289.635 311.716 288.285 311.956 287.035 312.376C286.735 301.906 278.155 293.516 267.615 293.516C256.885 293.516 248.185 302.216 248.185 312.946C248.185 313.436 248.205 313.926 248.245 314.406C246.375 311.246 242.935 309.116 238.985 309.116C233.035 309.116 228.225 313.936 228.225 319.876C228.225 320.716 228.335 321.536 228.515 322.326C227.405 321.706 226.125 321.356 224.765 321.356C220.505 321.356 217.045 324.816 217.045 329.076C217.045 333.336 220.505 336.796 224.765 336.796C229.025 336.796 285.605 336.796 291.035 336.796C297.965 336.796 303.575 331.186 303.575 324.256C303.565 317.326 297.955 311.716 291.035 311.716Z" fill="white"/>
<path d="M243.675 319.996C243.325 313.616 238.055 308.546 231.585 308.546C230.995 308.546 230.415 308.606 229.845 308.686L221.445 204.586H182.795L174.395 308.666C173.845 308.586 173.295 308.536 172.725 308.536C166.235 308.536 160.955 313.636 160.635 320.046C141.445 322.006 126.465 338.226 126.465 357.936H278.635C278.645 337.956 263.255 321.586 243.675 319.996Z" fill="url(#paint0_linear_1353_175714)"/>
<path d="M169.775 160.105C169.775 160.105 127.375 192.295 145.615 254.185C146.495 257.165 150.745 257.125 151.585 254.135C155.965 238.625 165.345 209.665 176.075 202.325C190.925 192.155 169.775 160.105 169.775 160.105Z" fill="#35416D"/>
<path d="M235.415 160.148C235.415 160.148 277.785 192.378 259.485 254.248C258.605 257.228 254.355 257.178 253.515 254.188C249.155 238.678 239.805 209.708 229.085 202.348C214.235 192.168 235.415 160.148 235.415 160.148Z" fill="#35416D"/>
<path d="M224.175 210.566C224.175 210.566 231.105 215.246 232.715 222.636C233.055 224.206 231.885 225.696 230.285 225.696H174.835C173.235 225.696 172.065 224.206 172.405 222.636C174.015 215.256 180.945 210.566 180.945 210.566" fill="#125D82"/>
<path d="M228.515 204.617L176.275 204.587C141.605 142.037 146.515 94.7267 160.875 62.5267C162.665 58.5367 164.575 54.7667 166.605 51.2267C167.305 49.9967 168.015 48.7967 168.725 47.6367C169.265 46.7467 169.815 45.8767 170.365 45.0167C183.065 25.3867 197.685 14.2367 201.515 11.5067C202.095 11.0967 202.855 11.0967 203.425 11.5067C207.255 14.2367 221.845 25.3967 234.515 45.0167C235.085 45.8767 235.625 46.7467 236.165 47.6367C236.885 48.8067 237.585 49.9967 238.285 51.2167C240.305 54.7667 242.245 58.5467 244.025 62.5667C258.385 94.7867 263.245 142.097 228.515 204.617Z" fill="#F7B728"/>
<path d="M226.665 95.2183C226.655 108.598 215.805 119.428 202.435 119.428C189.055 119.418 178.225 108.568 178.225 95.1983C178.235 81.8183 189.085 70.9883 202.455 70.9883C215.835 70.9983 226.675 81.8483 226.665 95.2183Z" fill="#35416D"/>
<path d="M219.765 95.205C219.755 96.915 219.505 98.565 219.055 100.135C218.715 101.255 218.275 102.345 217.705 103.375C217.405 103.935 217.085 104.485 216.705 105.005C215.475 106.835 213.905 108.385 212.065 109.595C209.325 111.445 205.995 112.525 202.445 112.525C192.865 112.515 185.105 104.765 185.105 95.195C185.105 91.855 186.045 88.745 187.675 86.095C188.825 84.235 190.315 82.605 192.075 81.315C192.575 80.925 193.115 80.555 193.685 80.245C194.675 79.645 195.755 79.165 196.885 78.795C198.625 78.185 200.495 77.875 202.445 77.875C212.035 77.885 219.785 85.645 219.765 95.205Z" fill="white"/>
<path d="M215.485 142.566C215.485 149.776 209.635 155.626 202.415 155.626C195.205 155.626 189.355 149.776 189.355 142.556C189.355 135.346 195.205 129.496 202.425 129.496C209.645 129.496 215.485 135.346 215.485 142.566Z" fill="#35416D"/>
<path d="M211.305 142.568C211.295 143.238 211.225 143.898 211.075 144.538C210.945 145.198 210.705 145.828 210.415 146.408C210.265 146.748 210.095 147.068 209.885 147.348C209.235 148.378 208.375 149.268 207.335 149.938C205.925 150.898 204.235 151.438 202.395 151.438C197.495 151.428 193.525 147.458 193.515 142.538C193.525 140.828 193.985 139.258 194.835 137.908C195.465 136.868 196.315 135.958 197.335 135.278C197.625 135.058 197.935 134.878 198.255 134.718C198.825 134.408 199.445 134.148 200.095 133.988C200.815 133.778 201.605 133.678 202.415 133.668C207.335 133.678 211.305 137.658 211.305 142.568Z" fill="white"/>
<path d="M223.825 211.956L180.945 211.936C178.355 211.936 176.255 209.836 176.265 207.246V204.586L228.515 204.616V207.276C228.515 209.866 226.415 211.966 223.825 211.956Z" fill="#125D82"/>
<path d="M206.775 172.595C211.045 181.605 215.395 203.585 204.035 255.055C203.835 255.995 203.045 256.435 202.285 256.395C201.565 256.375 200.865 255.925 200.665 255.055C189.375 203.595 193.745 181.585 198.035 172.605C198.895 170.795 200.555 169.875 202.275 169.835C202.275 169.835 202.285 169.825 202.315 169.825C204.115 169.795 205.885 170.735 206.775 172.595Z" fill="#35416D"/>
<path d="M234.535 45.0284C225.365 50.7184 214.315 54.0384 202.415 54.0384C190.535 54.0284 179.515 50.7184 170.375 45.0284C183.075 25.3984 197.695 14.2484 201.525 11.5184C202.105 11.1084 202.865 11.1084 203.435 11.5184C207.265 14.2484 221.865 25.4084 234.535 45.0284Z" fill="#35416D"/>
<path d="M236.185 47.6484C226.515 53.5784 214.905 57.0284 202.415 57.0284C189.965 57.0184 178.375 53.5684 168.735 47.6484C168.015 48.8084 167.305 50.0084 166.615 51.2384C176.885 57.5284 189.195 61.1884 202.425 61.1984C215.685 61.2084 228.025 57.5284 238.315 51.2384C237.615 50.0084 236.905 48.8184 236.185 47.6484Z" fill="#35416D"/>
<path opacity="0.3" d="M206.775 172.595C211.045 181.605 215.395 203.585 204.035 255.055C203.835 255.995 203.045 256.435 202.285 256.395L202.275 169.835C202.275 169.835 202.285 169.825 202.315 169.825C204.115 169.795 205.885 170.735 206.775 172.595Z" fill="url(#paint1_linear_1353_175714)"/>
<path opacity="0.1" d="M216.716 105.006C215.486 106.836 213.916 108.386 212.076 109.596L187.686 86.0964C188.836 84.2364 190.326 82.6064 192.086 81.3164L216.716 105.006Z" fill="#35416D"/>
<path opacity="0.1" d="M219.055 100.137C218.715 101.257 218.275 102.347 217.705 103.377L193.695 80.2469C194.685 79.6469 195.765 79.1669 196.895 78.7969L219.055 100.137Z" fill="#35416D"/>
<path opacity="0.1" d="M209.885 147.357C209.235 148.387 208.375 149.277 207.335 149.947L194.845 137.907C195.475 136.867 196.325 135.957 197.345 135.277L209.885 147.357Z" fill="#35416D"/>
<path opacity="0.1" d="M211.075 144.548C210.945 145.208 210.705 145.838 210.415 146.418L198.265 134.718C198.835 134.408 199.455 134.148 200.105 133.988L211.075 144.548Z" fill="#35416D"/>
<path d="M164.395 288.461L166.734 287.621C166.254 285.871 165.384 284.251 164.204 282.871L162.204 284.341C161.544 283.601 160.765 282.951 159.885 282.431L160.945 280.181C160.175 279.741 159.344 279.371 158.464 279.111C157.584 278.841 156.685 278.681 155.805 278.621L155.434 281.081C154.414 281.021 153.405 281.121 152.445 281.371L151.604 279.031C149.854 279.511 148.234 280.381 146.854 281.561L148.324 283.561C147.584 284.221 146.935 285.001 146.415 285.881L144.165 284.821C143.725 285.591 143.354 286.421 143.094 287.301C142.824 288.181 142.664 289.081 142.604 289.961L145.064 290.331C145.004 291.351 145.104 292.361 145.354 293.321L143.014 294.161C143.494 295.911 144.364 297.531 145.544 298.911L147.544 297.441C148.204 298.181 148.985 298.831 149.865 299.351L148.805 301.601C149.575 302.041 150.405 302.411 151.285 302.671C152.165 302.941 153.065 303.101 153.945 303.161L154.314 300.701C155.334 300.761 156.345 300.661 157.305 300.411L158.145 302.751C159.895 302.271 161.515 301.401 162.895 300.221L161.424 298.221C162.164 297.561 162.815 296.781 163.335 295.901L165.585 296.961C166.025 296.191 166.394 295.361 166.654 294.481C166.924 293.601 167.085 292.701 167.145 291.821L164.684 291.451C164.744 290.431 164.645 289.431 164.395 288.461ZM153.285 296.111C150.405 295.231 148.785 292.191 149.665 289.311C150.545 286.431 153.584 284.811 156.464 285.691C159.344 286.571 160.965 289.611 160.085 292.491C159.205 295.361 156.165 296.991 153.285 296.111Z" fill="#3E89CC"/>
<path d="M130.515 282.228C132.395 284.478 133.925 289.788 135.845 291.998C136.785 293.088 143.575 298.968 148.135 301.478C148.345 300.108 151.235 300.958 150.205 300.038C147.005 297.158 141.485 294.228 139.605 288.948C138.365 285.478 133.785 277.758 133.785 277.758" fill="#F4B798"/>
<path d="M105.465 366.769C105.465 368.329 115.185 369.589 127.175 369.589C139.165 369.589 148.875 368.329 148.875 366.769C148.875 365.209 139.155 363.949 127.175 363.949C115.185 363.949 105.465 365.209 105.465 366.769Z" fill="#ACC9F9"/>
<path d="M126.635 301.501L118.035 294.441C118.035 294.441 114.155 299.861 115.715 305.021C116.485 307.561 117.425 308.811 117.835 310.011C118.225 311.131 121.005 327.081 120.825 328.251C120.655 329.421 119.325 332.711 118.845 336.151C118.275 340.291 118.565 353.761 118.125 357.341C117.685 360.921 120.995 361.481 121.155 360.271C122.565 349.921 126.435 333.771 126.935 328.601C127.435 323.431 127.075 313.981 126.635 301.501Z" fill="#FFCCB0"/>
<path d="M126.795 311.683L123.215 320.223C124.815 322.833 125.755 325.933 125.915 329.083C125.995 330.723 125.875 332.363 125.945 334.003C125.945 334.123 125.965 334.243 125.995 334.363C126.455 331.933 126.795 329.923 126.925 328.613C127.275 324.963 127.205 319.163 126.975 311.683C126.915 311.673 126.855 311.673 126.795 311.683Z" fill="#F4B798"/>
<path d="M121.674 356.941C121.674 356.941 120.934 360.701 121.154 361.171C121.374 361.641 122.154 363.021 122.954 363.511C123.784 364.031 125.614 364.631 125.764 364.851C125.914 365.081 125.924 365.411 125.674 365.621C125.014 366.161 123.844 366.431 123.084 366.311C120.604 365.941 120.334 364.851 118.894 364.691C118.644 364.661 118.194 365.041 117.494 364.691C116.804 364.351 116.454 363.721 116.514 363.121C116.604 362.091 117.174 361.231 117.574 360.461C117.974 359.691 118.214 356.191 118.214 356.191" fill="#FFCCB0"/>
<path d="M125.865 365.81C126.045 365.5 126.085 365.03 125.915 364.92C125.685 364.77 124.845 364.23 124.365 364.02C123.885 363.81 123.115 363.62 123.385 363.76C123.655 363.9 123.165 364.45 122.725 364.43C121.175 364.36 120.015 363.34 119.135 363.13C117.855 362.83 117.305 361.33 117.245 361.09C117.005 361.25 116.465 362.46 116.355 362.85C116.255 363.2 116.085 363.83 116.185 364.18C116.255 364.43 116.415 364.92 116.345 365.45C116.345 365.45 116.595 365.64 117.265 365.77C117.685 365.85 118.255 365.77 118.255 365.77L118.355 364.97C118.355 364.97 118.705 364.95 119.145 365.04C119.585 365.12 120.315 365.54 120.355 365.59C120.535 365.8 120.685 366.18 120.915 366.3C121.535 366.6 122.165 366.74 122.955 366.78C124.605 366.83 125.565 366.34 125.865 365.81Z" fill="#222B70"/>
<path d="M138.465 365.138C138.285 364.938 136.315 364.618 135.385 364.228C134.505 363.858 133.435 362.678 133.235 362.178C133.025 361.678 133.075 359.138 133.105 358.068C133.285 350.718 134.645 332.738 134.845 328.438C135.185 320.958 134.215 313.238 131.335 301.228L120.615 293.008C120.615 293.008 117.615 298.588 118.615 303.918C119.195 307.018 121.765 307.488 122.195 308.688C122.625 309.888 129.115 329.288 129.115 329.288C129.115 329.288 127.855 333.478 127.785 338.078C127.725 341.998 129.505 353.828 129.835 358.338C129.875 359.218 130.025 361.328 129.765 361.998C129.445 362.818 128.635 363.788 128.675 364.828C128.695 365.428 129.135 366.008 129.895 366.238C130.655 366.478 131.075 366.038 131.335 366.028C132.845 365.968 133.265 367.008 135.875 367.008C136.675 367.008 137.845 366.558 138.465 365.928C138.705 365.658 138.645 365.338 138.465 365.138Z" fill="#FFCCB0"/>
<path d="M138.686 366.058C138.826 365.728 138.806 365.258 138.616 365.168C138.356 365.048 137.426 364.648 136.896 364.508C136.366 364.368 135.556 364.298 135.856 364.398C136.156 364.498 135.716 365.108 135.256 365.158C133.646 365.318 132.316 364.488 131.376 364.408C130.016 364.298 129.516 362.898 129.426 362.668C129.196 362.858 128.526 364.148 128.466 364.538C128.406 364.898 128.306 365.548 128.456 365.888C128.556 366.118 128.786 366.588 128.786 367.118C128.786 367.118 129.076 367.268 129.776 367.298C130.226 367.318 130.796 367.148 130.796 367.148V366.338C130.796 366.338 131.156 366.268 131.616 366.288C132.086 366.308 132.666 366.548 132.946 366.758C133.166 366.928 133.396 367.208 133.666 367.268C134.416 367.458 134.966 367.508 135.786 367.428C137.516 367.258 138.446 366.628 138.686 366.058Z" fill="#222B70"/>
<path d="M118.415 293.86C115.665 296.68 113.915 300.74 114.895 305.23C115.155 306.42 116.655 309.61 116.945 310.8C117.605 313.49 118.825 317.44 119.045 320.56C123.285 323.11 131.355 322.16 134.835 319.69C134.915 315.89 134.585 312.9 133.845 307.71C132.735 299.88 131.415 298.11 130.255 294.98C130.115 294.43 130.115 293.31 129.985 292.66" fill="#57C6F2"/>
<path d="M129.875 268.211C130.545 268.431 130.295 270.041 130.965 270.261C131.455 270.421 132.405 270.211 132.855 270.461C135.225 271.801 134.615 274.461 134.905 277.771C135.905 280.311 136.175 282.601 135.375 284.021C134.385 285.781 133.335 286.271 132.115 287.731C131.205 288.821 130.905 291.061 130.715 293.471C130.685 293.881 131.025 294.611 130.925 295.011C130.735 295.781 129.555 296.021 128.245 296.051C125.235 296.111 120.655 295.011 119.315 295.061C118.045 295.111 116.855 294.491 116.975 293.741C117.065 293.221 117.585 293.001 117.795 291.991C118.255 289.771 118.595 284.211 118.955 282.321C119.865 277.491 120.525 273.901 122.505 269.451" fill="#3E89CC"/>
<path d="M136.725 279.779C135.985 278.489 134.975 277.319 133.985 276.199L131.405 277.359C132.615 279.679 132.835 282.419 133.395 284.959C133.975 285.019 134.885 284.809 134.885 284.809C135.135 284.399 135.045 284.609 135.375 284.009C135.915 283.069 136.615 281.489 136.725 279.779Z" fill="#3181BC"/>
<path d="M138.485 261.69C138.765 260.56 138.965 259.35 138.925 258.36C138.855 256.44 138.605 253.67 135.425 252.53C132.245 251.39 128.735 252.07 127.685 254.37C126.645 256.67 126.885 260.14 126.735 262C126.585 263.86 125.225 266.08 125.225 266.08L132.075 269.03C132.075 269.03 133.195 266.6 133.655 266.3C134.115 266 134.275 267.17 135.805 267.04C136.455 266.99 137.145 265.82 137.665 264.39C137.685 264.35 137.695 264.29 137.715 264.25C138.055 264.23 138.445 264.21 138.535 264.18C139.005 264.04 138.975 263.83 138.865 263.53C138.635 262.88 138.535 262.19 138.485 261.69Z" fill="#FFCCB0"/>
<path d="M147.965 300.938C147.965 301.498 149.035 303.008 149.855 303.238C150.115 303.308 150.405 303.328 150.655 303.218C151.025 303.388 152.215 303.518 151.765 302.818C152.515 303.448 153.365 303.418 154.325 303.368C154.645 303.348 154.635 302.978 153.935 302.788C152.965 302.528 152.265 301.878 151.765 300.958C151.915 300.848 152.025 301.048 152.425 301.118C152.865 301.188 153.095 300.988 153.105 300.798C153.115 300.658 152.595 300.488 152.475 300.408C152.035 300.118 151.605 299.828 151.165 299.548C150.685 299.228 150.365 299.088 149.785 299.048C149.685 299.038 148.745 299.098 148.985 299.438" fill="#FFCCB0"/>
<path d="M132.524 278.99C133.664 281.34 136.644 289.12 137.104 290.01C138.924 293.54 148.274 301.21 148.274 301.21C148.274 301.21 149.854 300.95 149.854 299.36C147.174 297.5 142.154 289.54 141.114 288.58C140.444 287.96 137.404 275.66 137.404 275.66" fill="#FFCCB0"/>
<path d="M135.075 270.318C132.475 269.328 129.985 269.318 127.985 267.328C125.965 268.888 130.425 277.888 131.535 278.128C132.665 278.378 133.945 283.288 134.415 284.018C138.025 283.918 139.335 281.958 139.335 281.958C138.625 277.718 137.605 271.278 135.075 270.318Z" fill="#3E89CC"/>
<path d="M132.985 270.569C132.805 269.889 132.295 269.349 132.175 268.659C132.065 268.009 132.195 267.169 132.555 266.609C132.775 266.259 133.125 266.019 133.445 265.769C134.875 264.639 135.375 263.709 134.895 262.019C134.735 261.469 134.595 260.899 134.655 260.319C134.705 259.799 134.815 259.259 135.365 259.199C135.755 259.149 136.005 259.249 136.135 259.579C136.235 259.809 136.045 261.449 136.585 260.519C137.105 259.629 137.565 259.559 137.545 257.519C137.545 257.279 137.455 256.289 137.605 256.139C138.555 256.829 138.835 258.019 138.945 258.889C139.665 258.589 139.865 257.559 139.865 257.159C139.865 256.359 139.785 255.739 139.485 255.109C138.245 252.439 136.925 251.949 135.805 251.479C134.725 251.019 133.605 250.549 132.425 250.579C131.255 250.609 129.805 250.959 129.465 251.839C127.845 251.419 126.915 252.839 126.525 253.349C125.975 254.079 125.555 254.899 125.275 255.769C124.865 257.049 124.765 258.419 124.435 259.729C124.165 260.799 123.715 261.899 122.885 262.639C122.095 263.359 120.985 263.419 120.125 264.079C119.035 264.909 118.425 266.299 118.485 267.679C118.545 269.049 119.255 270.539 118.425 271.799C118.155 272.209 117.775 272.539 117.515 272.949C116.905 273.899 116.995 275.209 117.575 276.179C118.165 277.149 119.305 278.249 120.375 278.569C121.445 278.889 122.285 279.049 123.405 278.989C125.375 278.879 127.045 278.989 129.125 277.209C130.305 276.199 129.555 275.619 130.685 274.549C131.325 273.949 132.225 273.629 132.695 272.849C133.085 272.199 133.155 271.389 132.995 270.659C133.005 270.619 132.995 270.589 132.985 270.569Z" fill="#222B54"/>
<path d="M29.1152 354.586C29.1152 356.146 38.8352 357.406 50.8252 357.406C62.8152 357.406 72.5252 356.146 72.5252 354.586C72.5252 353.026 62.8052 351.766 50.8252 351.766C38.8352 351.766 29.1152 353.036 29.1152 354.586Z" fill="#ACC9F9"/>
<path d="M45.5445 344.638C45.5445 344.638 44.8245 348.498 45.0545 348.978C45.2845 349.458 46.1045 350.868 46.9245 351.358C47.7845 351.878 49.6645 352.478 49.8245 352.708C49.9745 352.938 49.9945 353.278 49.7345 353.498C49.0545 354.058 47.8745 354.348 47.0845 354.238C44.5445 353.878 44.2545 352.768 42.7745 352.618C42.5145 352.598 42.0545 352.978 41.3445 352.638C40.6345 352.298 40.2745 351.648 40.3145 351.038C40.3945 349.978 40.9645 349.088 41.3745 348.298C41.7745 347.508 41.9945 343.918 41.9945 343.918" fill="#FFBFAE"/>
<path d="M51.2549 280.367L41.1549 280.617C41.1549 280.617 37.2349 286.217 38.8849 291.487C39.6949 294.077 40.6749 295.347 41.1149 296.577C41.5249 297.727 44.5349 314.037 44.3749 315.237C44.2049 316.437 42.8749 319.827 42.4249 323.357C41.8749 327.607 42.3149 341.407 41.9049 345.087C43.1649 345.767 44.2749 345.787 45.3649 345.717C46.7049 335.097 50.1849 320.837 50.6449 315.537C51.0949 310.227 51.8449 293.157 51.2549 280.367Z" fill="#3E89CC"/>
<path d="M50.3248 297.857C50.3248 297.857 43.3048 282.957 41.9448 286.227C39.6948 291.637 43.9748 294.587 43.9748 294.587C45.6348 297.247 49.4048 312.467 49.6048 315.697C49.7048 317.377 49.6048 319.057 49.6848 320.737C49.6948 320.857 49.7448 321.117 49.7848 321.237C50.2348 318.737 50.5248 316.547 50.6448 315.207C50.9748 311.457 50.8348 305.517 50.5148 297.847C50.4448 297.847 50.3848 297.847 50.3248 297.857Z" fill="#2F7DAD"/>
<path d="M49.9249 353.678C50.1049 353.358 50.1349 352.878 49.9649 352.768C49.7249 352.608 48.8649 352.068 48.3649 351.858C47.8649 351.648 47.0849 351.458 47.3649 351.608C47.6449 351.748 47.1549 352.318 46.6949 352.298C45.1049 352.238 43.9049 351.208 42.9949 351.008C41.6849 350.708 41.0949 349.188 41.0349 348.938C40.7949 349.097 40.2449 350.357 40.1449 350.747C40.0449 351.107 39.8749 351.748 39.9849 352.118C40.0649 352.368 40.2249 352.878 40.1649 353.418C40.1649 353.418 40.4249 353.608 41.1149 353.738C41.5449 353.818 42.1249 353.728 42.1249 353.728L42.2149 352.908C42.2149 352.908 42.5749 352.887 43.0249 352.967C43.4749 353.047 44.2249 353.468 44.2749 353.518C44.4649 353.728 44.6149 354.118 44.8549 354.238C45.4949 354.538 46.1449 354.678 46.9549 354.708C48.6449 354.748 49.6249 354.228 49.9249 353.678Z" fill="#2C1E56"/>
<path d="M53.9349 346.266C55.0449 346.276 56.0049 346.296 57.1149 346.326C57.0249 348.306 57.3849 349.756 57.4449 349.886C57.6649 350.396 58.7649 351.596 59.6749 351.966C60.6249 352.356 62.6449 352.656 62.8349 352.866C63.0249 353.076 63.0849 353.406 62.8449 353.656C62.2149 354.306 61.0249 354.776 60.2049 354.786C57.5349 354.816 57.0949 353.756 55.5449 353.836C55.2749 353.846 54.8449 354.306 54.0649 354.066C53.2849 353.836 52.8349 353.246 52.8049 352.636C52.7549 351.576 53.5749 350.576 53.8949 349.726C53.9349 349.586 53.9149 346.516 53.9349 346.266Z" fill="#FFBFAE"/>
<path d="M43.7951 279.105L53.8351 281.725C56.9051 294.005 59.0151 307.605 58.7451 315.275C58.5851 319.685 57.3851 338.125 57.2651 345.665C57.2651 345.845 57.2551 346.075 57.2551 346.325C56.1451 346.295 55.0451 346.275 53.9351 346.265C53.9251 346.165 53.9251 346.055 53.9151 345.975C53.5351 341.355 51.5851 329.255 51.6051 325.235C51.6351 320.525 52.8851 316.215 52.8851 316.215C52.8851 316.215 46.0351 296.405 45.5851 295.175C45.1251 293.945 42.4951 293.485 41.8651 290.315C40.7751 284.855 43.7951 279.105 43.7951 279.105Z" fill="#3E89CC"/>
<path d="M63.0752 353.805C63.2152 353.465 63.1952 352.985 62.9952 352.895C62.7252 352.775 61.7652 352.365 61.2252 352.235C60.6852 352.095 59.8552 352.035 60.1552 352.135C60.4652 352.235 60.0252 352.865 59.5452 352.925C57.8952 353.105 56.5252 352.265 55.5652 352.205C54.1752 352.105 53.6452 350.685 53.5452 350.445C53.3152 350.645 52.6352 351.975 52.5752 352.375C52.5152 352.745 52.4252 353.415 52.5852 353.755C52.6952 353.995 52.9352 354.475 52.9352 355.015C52.9352 355.015 53.2252 355.165 53.9552 355.185C54.4152 355.195 54.9952 355.025 54.9952 355.025L54.9852 354.195C54.9852 354.195 55.3452 354.115 55.8252 354.135C56.3052 354.145 56.9052 354.385 57.1952 354.605C57.4252 354.775 57.6652 355.055 57.9352 355.125C58.7152 355.315 59.2652 355.365 60.1052 355.265C61.8852 355.055 62.8352 354.395 63.0752 353.805Z" fill="#2C1E56"/>
<path d="M64.4648 257.977C64.2348 256.337 62.4248 256.297 62.4248 256.297C59.8348 256.957 49.7148 258.077 49.7148 258.077L52.3648 263.357C54.8448 262.537 62.9448 260.597 63.8948 260.257C63.8848 260.257 64.6848 259.607 64.4648 257.977Z" fill="#FFBB99"/>
<path d="M62.6452 242.559C62.6452 242.559 61.6152 241.689 60.5952 242.889C61.7652 246.049 60.3352 256.089 60.5052 257.489C60.5152 257.579 60.4652 257.789 60.3652 258.079C60.3652 258.079 61.3852 256.579 62.8852 257.279C64.3852 257.979 64.4852 258.999 64.4852 258.999C65.3852 255.139 62.6452 242.559 62.6452 242.559Z" fill="#FFBB99"/>
<path d="M62.935 245.247C62.935 245.247 63.265 244.827 63.315 244.207C63.365 243.587 63.215 242.547 63.215 242.547L62.335 242.717L62.935 245.247Z" fill="#FFBB99"/>
<path d="M54.1956 282.307C53.7656 282.967 45.7656 283.037 44.4156 283.057C42.7856 283.087 40.0456 283.057 39.9756 282.307C39.9256 281.777 40.6456 281.407 40.5856 280.377C40.4656 278.117 39.3856 272.647 39.2456 270.737C38.8956 265.837 38.6156 262.197 39.3956 257.387L46.2056 254.297C46.9056 254.347 47.0756 255.957 47.7856 255.997C48.2956 256.037 49.1656 255.587 49.6556 255.717C52.2956 256.397 52.7456 257.737 53.8656 260.867C54.0356 261.097 54.1956 261.317 54.3556 261.537C54.7556 262.107 55.1156 262.677 55.3456 263.307C55.8956 264.797 55.7456 266.667 53.8956 269.837C53.1856 271.067 54.4456 281.917 54.1956 282.307Z" fill="#43C1E8"/>
<path d="M52.4947 245.057C52.3047 243.907 52.0147 242.727 51.5847 241.817C50.7647 240.087 49.4447 237.627 46.0747 237.837C42.7047 238.047 39.7447 240.057 39.6847 242.577C39.6347 245.097 41.2247 248.197 41.8147 249.967C42.4047 251.737 42.0247 254.317 42.0247 254.317L49.4847 254.327C49.4847 254.327 49.5547 251.647 49.8647 251.197C50.1747 250.747 50.7747 251.747 52.1347 251.027C52.7047 250.717 52.8847 249.377 52.8047 247.857C52.8047 247.807 52.7947 247.757 52.7947 247.707C53.0947 247.557 53.4447 247.377 53.5147 247.317C53.8947 246.997 53.7747 246.827 53.5647 246.587C53.0947 246.087 52.7347 245.497 52.4947 245.057Z" fill="#FFCCB0"/>
<path d="M53.7753 243.996L68.6753 238.316C68.6753 238.316 69.3053 238.696 69.5653 239.636C69.8253 240.586 69.5653 241.226 69.5653 241.226L54.2953 245.546C54.2953 245.546 54.0353 245.266 53.8653 244.806C53.7253 244.396 53.7753 243.996 53.7753 243.996Z" fill="#3E89CC"/>
<path d="M59.5852 246.349L57.8552 247.089C57.8652 247.519 57.0052 247.039 56.9252 246.979C56.7452 246.849 56.6052 246.719 56.4852 246.589C56.4752 246.579 56.4752 246.569 56.4652 246.559C56.0952 245.969 56.2752 244.199 56.2752 244.199C56.3152 243.559 56.2452 243.659 56.0452 243.129C56.0452 243.129 55.9952 242.499 56.5252 242.339C56.7852 242.259 57.1852 242.389 57.2852 242.549C57.2952 242.579 57.3052 242.589 57.3052 242.589C57.3052 241.729 58.2652 242.509 58.5052 242.859C58.7852 242.909 59.0252 243.079 59.2152 243.289C59.8052 243.939 59.8952 245.869 59.5852 246.349Z" fill="#FFCCB0"/>
<path d="M64.8954 262.238C65.3954 260.658 63.7754 259.848 63.7754 259.848C61.1554 259.328 51.5254 255.988 51.5254 255.988L51.6454 261.888C54.2354 262.218 62.3854 263.948 63.3854 264.048C63.3954 264.048 64.3954 263.818 64.8954 262.238Z" fill="#FFCCB0"/>
<path d="M59.6248 245.969C59.6248 245.969 58.0948 245.489 57.3848 246.909C58.9448 249.769 60.2548 259.799 60.7648 261.119C60.7948 261.209 60.7948 261.419 60.7748 261.729C60.7748 261.729 61.4148 260.029 63.0348 260.359C64.6548 260.689 64.9948 261.649 64.9948 261.649C64.9348 257.669 59.6248 245.969 59.6248 245.969Z" fill="#FFCCB0"/>
<path d="M55.3451 263.306C53.4051 262.536 50.7451 262.366 50.7451 262.366C50.7451 262.366 51.3151 260.946 51.6351 260.886C51.8451 260.846 53.3451 261.246 54.3551 261.536C54.7551 262.106 55.1151 262.676 55.3451 263.306Z" fill="#36B2CE"/>
<path d="M45.8155 255.587C43.6555 257.347 42.4155 259.507 39.6855 260.247C40.0255 262.777 50.0555 263.387 50.8155 262.547C51.5955 261.687 56.4855 263.027 57.3555 262.987C59.0655 259.817 58.0155 257.687 58.0155 257.687C53.9955 256.197 47.9055 253.877 45.8155 255.587Z" fill="#43C1E8"/>
<path d="M51.9948 240.337C51.6748 239.597 51.3548 239.057 50.8448 238.597C48.6548 236.637 47.2448 236.707 46.0348 236.707C44.8548 236.707 43.6448 236.727 42.5748 237.217C41.5148 237.707 40.3148 238.597 40.3448 239.537C38.6848 239.787 38.3948 241.457 38.2448 242.087C38.0248 242.967 37.9649 243.897 38.0449 244.807C38.0849 245.287 38.1249 246.627 38.1849 248.307C38.1849 248.307 36.8948 254.527 38.0148 256.997C38.9248 259.017 40.2548 257.667 41.8348 257.217C42.1948 257.177 42.5649 257.137 42.9349 257.097C44.9849 257.307 46.7248 255.117 49.5548 255.207C50.8648 255.247 48.9448 247.317 48.8348 246.967C48.6748 246.467 48.1848 244.277 48.6748 243.997C49.0148 243.807 49.2748 243.787 49.5348 244.037C49.7148 244.207 50.1848 245.787 50.3148 244.727C50.4448 243.707 50.8448 243.457 50.0148 241.587C49.9148 241.367 49.4548 240.487 49.5348 240.297C50.6848 240.557 51.4048 241.547 51.8448 242.307C52.3648 241.727 52.1448 240.697 51.9948 240.337Z" fill="#222B54"/>
<path d="M56.8848 242.369C56.8848 242.369 57.1648 241.969 57.4148 241.969C57.6948 241.969 57.8048 242.079 57.9048 242.309C58.0648 242.689 58.4648 243.049 58.5448 243.269C58.6848 243.639 57.9048 243.909 57.7148 243.859C57.5248 243.809 56.8848 243.329 56.8848 243.329V242.369Z" fill="#FFCCB0"/>
<path d="M57.665 242.117C57.665 242.117 58.015 241.727 58.315 241.797C58.615 241.857 59.375 243.497 59.375 243.497L58.675 243.747L58.065 243.127L57.665 242.117Z" fill="#FFCCB0"/>
<path d="M55.7852 245.119L56.4652 246.559L56.7052 245.239L56.5252 244.879L55.7852 245.119Z" fill="#FFCCB0"/>
<path d="M59.5957 242.778C59.5957 242.778 60.3557 244.768 60.7457 244.918C61.1357 245.058 61.4457 244.508 61.2957 244.028C61.1457 243.548 60.4357 242.958 60.3157 242.858C60.1357 242.708 59.5957 242.508 59.5957 242.778Z" fill="#FFBB99"/>
<path d="M60.1348 243.967C60.1348 243.967 60.4048 244.697 60.6248 245.237C60.7848 245.627 61.0248 245.637 61.0248 245.637L61.6948 245.827C61.6948 245.827 61.6348 244.957 61.6248 244.877C61.6148 244.847 61.6348 244.227 61.2948 244.027C60.8948 243.797 60.1348 243.967 60.1348 243.967Z" fill="#FFBB99"/>
<path d="M60.1155 241.428C60.1155 241.428 60.4955 242.008 60.6955 242.288C60.8855 242.558 61.2655 242.408 61.2055 242.008C61.1655 241.768 60.9055 241.088 60.7755 240.988C60.5055 240.798 60.0355 241.238 60.1155 241.428Z" fill="#FFBB99"/>
<path d="M60.6856 240.968C60.6856 240.968 61.1356 241.978 61.2756 242.288C61.4156 242.588 61.8156 242.518 61.8256 242.108C61.8356 241.858 61.6156 240.698 61.5056 240.578C61.2856 240.348 60.6556 240.778 60.6856 240.968Z" fill="#FFBB99"/>
<path d="M61.4351 240.617C61.4351 240.617 61.6751 241.537 61.8051 241.857C61.9251 242.167 62.3351 242.107 62.3651 241.707C62.3851 241.457 62.2751 240.477 62.1751 240.357C61.9651 240.107 61.4151 240.427 61.4351 240.617Z" fill="#FFBB99"/>
<path d="M62.2053 240.549C62.2053 240.549 62.3053 241.219 62.3753 241.459C62.4353 241.689 62.7353 241.679 62.7853 241.399C62.8153 241.229 62.8253 240.519 62.7553 240.419C62.6153 240.219 62.1953 240.409 62.2053 240.549Z" fill="#FFBB99"/>
<path d="M69.5652 241.348C69.5552 241.348 69.5452 241.348 69.5352 241.348C69.4652 241.338 69.4252 241.268 69.4352 241.198C69.8452 239.248 68.6552 238.448 68.6052 238.418C68.5452 238.378 68.5352 238.308 68.5652 238.248C68.6052 238.188 68.6852 238.168 68.7352 238.208C68.7452 238.218 70.1252 239.118 69.6752 241.248C69.6752 241.308 69.6252 241.348 69.5652 241.348Z" fill="#73B5E5"/>
<path d="M54.3179 245.534C54.4533 245.487 54.441 245.102 54.2904 244.675C54.1398 244.248 53.908 243.94 53.7726 243.988C53.6371 244.036 53.6494 244.42 53.8 244.848C53.9506 245.275 54.1824 245.582 54.3179 245.534Z" fill="#73B5E5"/>
<path d="M227.735 355.129C227.735 356.689 237.455 357.949 249.445 357.949C261.435 357.949 271.145 356.689 271.145 355.129C271.145 353.569 261.425 352.309 249.445 352.309C237.455 352.319 227.735 353.579 227.735 355.129Z" fill="#ACC9F9"/>
<path d="M212.525 195.699L235.655 354.269" stroke="#222B54" stroke-width="2" stroke-miterlimit="10" stroke-linecap="round"/>
<path d="M242.275 195.699L265.415 354.269" stroke="#222B54" stroke-width="2" stroke-miterlimit="10" stroke-linecap="round"/>
<path d="M221.275 254.41H250.535" stroke="#222B54" stroke-width="2" stroke-miterlimit="10" stroke-linecap="round"/>
<path d="M223.585 269.699H252.845" stroke="#222B54" stroke-width="2" stroke-miterlimit="10"/>
<path d="M219.325 239.121H248.585" stroke="#222B54" stroke-width="2" stroke-miterlimit="10" stroke-linecap="round"/>
<path d="M217.375 223.828H246.635" stroke="#222B54" stroke-width="2" stroke-miterlimit="10" stroke-linecap="round"/>
<path d="M215.426 208.527H244.686" stroke="#222B54" stroke-width="2" stroke-miterlimit="10" stroke-linecap="round"/>
<path d="M226.146 284.988H254.886" stroke="#222B54" stroke-width="2" stroke-miterlimit="10" stroke-linecap="round"/>
<path d="M227.806 300.277H257.066" stroke="#222B54" stroke-width="2" stroke-miterlimit="10" stroke-linecap="round"/>
<path d="M230.396 315.57H259.656" stroke="#222B54" stroke-width="2" stroke-miterlimit="10" stroke-linecap="round"/>
<path d="M232.665 330.871H261.925" stroke="#222B54" stroke-width="2" stroke-miterlimit="10" stroke-linecap="round"/>
<path d="M234.806 346.16H264.066" stroke="#222B54" stroke-width="2" stroke-miterlimit="10" stroke-linecap="round"/>
<path d="M241.855 141.888L245.555 140.568C244.795 137.808 243.425 135.248 241.555 133.068L238.395 135.398C237.345 134.228 236.125 133.208 234.735 132.378L236.415 128.828C235.195 128.138 233.885 127.558 232.485 127.128C231.085 126.698 229.675 126.458 228.275 126.348L227.685 130.238C226.075 130.148 224.485 130.308 222.965 130.698L221.645 126.998C218.885 127.758 216.325 129.128 214.145 130.998L216.475 134.158C215.305 135.208 214.285 136.428 213.455 137.818L209.905 136.138C209.215 137.358 208.635 138.668 208.205 140.068C207.775 141.468 207.535 142.878 207.425 144.278L211.315 144.868C211.225 146.478 211.385 148.068 211.775 149.588L208.075 150.908C208.835 153.668 210.205 156.228 212.075 158.408L215.235 156.078C216.285 157.248 217.505 158.268 218.895 159.098L217.215 162.648C218.435 163.338 219.745 163.918 221.145 164.348C222.545 164.778 223.955 165.018 225.355 165.128L225.945 161.238C227.555 161.328 229.145 161.168 230.665 160.778L231.985 164.478C234.745 163.718 237.305 162.348 239.485 160.478L237.155 157.318C238.325 156.268 239.345 155.048 240.175 153.658L243.725 155.338C244.415 154.118 244.995 152.808 245.425 151.408C245.855 150.008 246.095 148.598 246.205 147.198L242.315 146.608C242.405 144.998 242.245 143.408 241.855 141.888ZM224.295 153.968C219.745 152.578 217.185 147.768 218.575 143.218C219.965 138.668 224.775 136.108 229.325 137.498C233.875 138.888 236.435 143.698 235.045 148.248C233.655 152.788 228.845 155.358 224.295 153.968Z" fill="#3E89CC"/>
<path d="M245.124 247.586C245.124 247.586 245.374 250.296 245.474 250.986C245.574 251.676 247.784 251.576 248.014 251.206C248.244 250.826 248.164 247.646 248.164 247.646" fill="#FFCCB0"/>
<path d="M248.634 251.775C248.684 252.495 248.564 253.685 248.564 253.685L246.024 253.855L245.874 253.435C245.874 253.435 245.084 253.915 244.434 253.955L242.294 254.095C240.724 254.205 239.824 254.065 239.764 253.785C239.524 252.645 241.404 252.565 241.884 252.535C243.284 252.445 244.764 251.685 245.044 250.945C245.254 250.415 245.134 250.285 245.434 250.365C245.434 250.365 245.694 250.405 245.894 250.715C246.194 251.185 246.724 251.485 247.264 251.345C247.574 251.265 247.884 251.125 248.094 250.875C248.084 250.885 248.584 251.045 248.634 251.775Z" fill="#222B70"/>
<path d="M227.814 248.466C227.814 248.466 227.794 250.386 227.934 251.066C228.074 251.746 230.264 251.526 230.484 251.136C230.694 250.746 230.434 247.566 230.434 247.566" fill="#FFCCB0"/>
<path d="M231.115 251.796C231.175 252.516 231.175 253.876 231.175 253.876L228.925 254.416L228.635 254.036C228.635 254.036 228.005 254.576 227.315 254.756C226.795 254.896 225.725 254.996 225.185 254.966C223.325 254.846 222.035 254.256 221.975 253.986C221.705 252.846 224.185 252.986 224.685 252.946C226.135 252.826 227.105 251.786 227.385 251.046C227.585 250.506 227.465 250.386 227.775 250.456C227.775 250.456 228.045 250.486 228.255 250.796C228.575 251.266 229.125 251.546 229.685 251.406C230.005 251.326 230.325 251.176 230.535 250.916C230.535 250.926 231.055 251.076 231.115 251.796Z" fill="#222B70"/>
<path d="M254.444 176.365C253.854 176.605 252.784 176.875 251.524 177.035C250.724 177.125 249.834 177.185 248.934 177.165C247.474 177.135 245.994 176.885 244.794 176.285C241.974 174.865 241.624 172.185 241.414 171.935C241.784 171.935 243.704 171.945 245.614 171.865C247.674 171.785 249.724 171.605 249.794 171.195C249.434 170.535 249.134 169.755 248.894 168.875C247.454 163.785 247.844 155.665 248.234 151.945C249.864 152.285 252.514 152.885 253.204 154.095C256.124 159.275 256.944 175.365 254.444 176.365Z" fill="#43C1E8"/>
<path d="M253.115 158.715C253.055 160.155 252.215 172.425 251.525 177.035C250.725 177.125 249.835 177.185 248.935 177.165C247.335 175.415 245.305 172.875 244.215 172.625L244.665 172.005C244.985 172.005 245.305 171.965 245.615 171.865C246.965 171.475 248.145 170.265 248.895 168.875C249.605 167.565 249.935 166.085 249.675 164.975L253.115 158.715Z" fill="#36B2CE"/>
<path d="M239.795 214.248C239.995 218.178 240.335 222.248 240.885 225.068C241.355 227.468 246.785 226.028 246.655 223.898C246.465 220.878 247.805 215.358 249.005 200.988C249.175 198.818 250.155 198.568 250.805 194.088C251.445 189.608 248.965 184.948 248.965 184.948L239.685 184.348L239.555 197.398L239.515 201.808C239.495 201.818 239.475 207.868 239.795 214.248Z" fill="#3E89CC"/>
<path d="M246.635 223.396C246.635 223.396 248.395 226.696 248.645 229.836C249.025 234.436 248.555 249.566 248.555 249.566C248.555 249.566 246.185 250.086 244.915 249.706C244.915 249.706 240.625 224.456 240.415 221.566C240.215 218.676 246.635 223.396 246.635 223.396Z" fill="#3E89CC"/>
<path d="M239.794 214.245C240.454 212.125 241.764 208.065 242.834 205.775C244.334 202.575 245.214 200.655 245.214 200.655C250.524 195.075 245.784 188.395 245.784 188.395C245.784 188.395 243.134 191.975 242.834 192.355C242.544 192.705 240.814 195.745 239.544 197.405L239.504 201.815C239.494 201.815 239.474 207.865 239.794 214.245Z" fill="#2F7DAD"/>
<path d="M232.114 224.878C231.904 221.498 234.344 217.358 234.344 217.358C234.344 217.358 227.264 211.928 227.154 210.668C227.154 210.668 226.144 218.618 225.784 221.068C225.154 225.328 227.284 249.618 227.284 249.618C227.284 249.618 228.824 250.048 230.874 249.668C230.874 249.668 231.254 240.288 232.794 233.928C233.514 230.918 232.374 225.708 232.114 224.878Z" fill="#3E89CC"/>
<path d="M232.714 184.935C229.944 191.105 226.944 211.015 226.224 217.895C225.914 220.805 228.344 225.225 231.174 222.585C234.544 219.435 239.294 204.025 240.994 201.485C242.694 198.945 249.034 196.605 244.704 183.695" fill="#3E89CC"/>
<path d="M246.054 150.296C246.054 150.296 245.304 147.746 245.634 145.856C245.964 143.976 247.094 140.576 246.674 138.036C246.254 135.496 243.044 133.376 239.654 133.706C236.264 134.036 235.274 137.286 234.704 139.176C234.134 141.056 234.234 143.936 234.374 145.486C234.514 147.036 235.364 148.266 235.924 148.596C236.494 148.926 238.614 148.486 238.994 148.896C239.364 149.306 239.654 151.706 239.654 151.706" fill="#FFCCB0"/>
<path d="M247.284 152.285C247.284 152.285 247.254 151.005 246.824 150.555C245.684 149.345 239.504 150.915 239.204 151.125C238.904 151.335 238.624 152.575 238.624 152.575L247.284 152.285Z" fill="#36B2CE"/>
<path d="M246.274 145.856C246.134 146.776 246.384 146.866 245.914 147.086C245.914 147.086 241.284 147.206 240.314 147.086C238.244 146.116 238.214 142.686 238.214 142.686C238.214 142.686 238.214 142.686 238.204 142.686C238.244 142.046 238.114 141.366 237.844 140.976C237.224 140.086 236.444 140.626 236.354 141.476C236.264 142.326 236.344 142.056 236.124 142.166C235.824 142.326 235.404 142.296 235.524 140.666C235.624 139.246 235.714 138.886 236.144 137.946C236.564 136.996 236.794 137.056 237.174 136.886C236.764 136.686 236.324 136.656 235.504 135.386C234.564 133.916 234.684 132.356 236.444 130.906C236.474 131.326 236.984 132.066 238.034 132.356C240.084 132.916 243.794 132.446 245.594 133.496C246.364 133.946 247.044 134.956 246.674 135.726C246.674 135.726 248.164 135.496 248.254 138.436C248.424 144.396 246.414 144.936 246.274 145.856Z" fill="#222B54"/>
<path d="M232.715 184.937C233.155 185.097 233.545 185.357 234.005 185.497C235.095 185.827 236.235 185.637 237.345 185.537C238.495 185.437 239.635 185.327 240.785 185.237C246.775 184.977 248.835 186.417 249.805 184.967C249.995 184.687 250.105 184.277 250.015 183.737C249.805 182.417 249.375 181.967 249.545 180.637C249.695 179.527 249.895 178.197 250.185 176.677C251.175 171.427 253.135 163.407 253.395 158.587C253.775 151.687 246.765 151.747 246.765 151.747C236.465 151.107 232.625 154.067 232.065 158.497C232.025 158.807 231.995 159.147 231.975 159.507C231.715 164.077 233.005 173.507 233.665 179.017C233.845 180.537 231.825 184.617 232.715 184.937Z" fill="#43C1E8"/>
<path d="M232.325 185.338C232.755 185.708 234.025 185.818 235.795 185.668C234.205 185.788 232.555 184.788 232.915 183.978C233.265 183.158 234.255 181.398 234.365 179.888C234.785 174.338 234.675 158.618 234.895 158.878C234.645 159.368 233.935 160.068 231.945 160.528C231.905 165.118 232.755 173.248 233.065 178.388C233.375 183.478 230.695 183.928 232.325 185.338Z" fill="#36B2CE"/>
<path d="M211.084 145.877C211.114 145.607 211.454 145.737 211.544 145.957C211.554 145.987 211.574 146.057 211.594 146.147C211.564 145.707 211.534 145.347 211.544 145.257C211.574 145.007 211.884 145.097 211.994 145.297C211.984 145.117 211.984 144.987 211.984 144.927C212.014 144.597 212.364 144.737 212.454 145.007C212.474 145.067 212.504 145.237 212.534 145.457C212.524 145.337 212.524 145.247 212.534 145.207C212.564 144.937 212.874 145.007 212.964 145.227C212.994 145.297 213.014 145.427 213.064 145.747C213.104 146.017 213.184 146.307 213.224 146.577C213.254 146.817 213.564 147.977 214.134 148.087C215.014 148.267 214.434 146.747 215.054 146.387C215.244 146.277 215.474 147.457 215.494 148.127C215.514 148.797 215.524 149.137 215.464 149.527C215.414 149.927 215.204 150.487 215.234 150.727C215.264 150.967 215.534 151.597 215.534 151.597L213.504 152.437C213.504 152.437 213.234 151.227 212.964 150.947C212.284 150.287 211.604 149.507 211.344 148.577C211.184 147.997 211.124 147.387 211.064 146.787C211.074 146.777 211.074 145.957 211.084 145.877Z" fill="#FFCCB0"/>
<path d="M213.154 151.974C213.154 151.974 213.834 155.934 214.514 159.114C215.054 161.564 215.714 164.114 216.874 166.424C216.884 166.444 216.884 166.464 216.894 166.484C217.564 167.934 219.214 170.084 220.004 170.444C223.864 172.224 232.824 164.154 234.674 162.524C238.834 163.634 241.934 151.734 241.934 151.734C241.934 151.734 237.024 151.804 234.074 152.434C230.924 153.104 222.514 163.624 222.084 163.644C221.664 163.674 220.954 162.094 220.024 160.304C217.924 156.294 215.594 151.234 215.594 151.234C215.594 151.234 213.684 151.804 213.654 151.824L213.154 151.974Z" fill="#43C1E8"/>
<path d="M234.424 140.508C234.424 140.508 232.954 142.708 233.134 143.178C233.314 143.648 234.724 143.618 234.724 143.618" fill="#FFCCB0"/>
<path d="M330.995 368.725C344.824 368.725 356.035 367.543 356.035 366.085C356.035 364.627 344.824 363.445 330.995 363.445C317.166 363.445 305.955 364.627 305.955 366.085C305.955 367.543 317.166 368.725 330.995 368.725Z" fill="#ACC9F9"/>
<path d="M317.555 362.345C317.345 362.755 316.335 363.705 314.945 364.325C313.555 364.945 310.595 365.245 312.235 365.785C313.875 366.335 315.795 366.005 316.765 365.845C317.735 365.685 318.675 365.665 319.815 365.665C321.325 365.655 321.335 365.565 321.135 363.865C320.845 361.515 318.235 361.015 317.555 362.345Z" fill="#222B70"/>
<path d="M344.885 361.495C344.805 361.965 345.475 363.395 344.275 364.445C343.075 365.495 340.355 366.605 342.155 366.645C343.965 366.685 345.695 366.265 346.615 365.815C347.535 365.365 346.805 364.645 347.935 364.285C349.435 363.815 349.125 362.705 348.345 362.025C347.355 359.775 345.155 359.965 344.885 361.495Z" fill="#222B70"/>
<path d="M339.135 313.827C339.135 313.827 342.735 303.257 332.525 294.547C332.525 294.547 327.055 296.727 322.675 296.987C319.225 297.197 317.475 296.877 317.475 296.877C317.475 296.877 317.185 306.267 317.175 311.327L339.135 313.827Z" fill="#3E89CC"/>
<path d="M316.355 331.388C316.155 326.658 321.285 327.278 323.175 330.808C327.085 338.108 321.735 354.928 321.025 362.898C320.295 363.178 319.055 363.408 318.315 363.068C317.805 362.838 317.525 362.198 317.525 362.198C317.655 352.428 316.575 336.448 316.355 331.388Z" fill="#3E89CC"/>
<path d="M323.005 332.104C322.415 334.034 315.875 336.064 316.405 329.034C316.645 325.914 317.265 308.714 317.385 307.054C317.505 305.394 317.785 302.974 318.585 302.664C322.595 301.154 329.685 306.394 328.625 312.624C327.925 316.794 324.225 328.104 323.005 332.104Z" fill="#3E89CC"/>
<path d="M333.295 334.786C331.715 330.326 336.855 329.536 339.765 332.286C346.595 338.716 346.855 353.876 348.525 361.696C347.575 362.346 346.065 362.576 345.545 362.546C344.985 362.516 344.735 362.126 344.735 362.126C341.965 352.766 334.985 339.556 333.295 334.786Z" fill="#3E89CC"/>
<path d="M340.045 333.337C340.225 335.347 334.775 339.496 332.625 332.786C331.675 329.806 327.595 312.227 327.085 310.637C326.575 309.057 326.715 305.787 327.345 305.207C330.495 302.297 337.595 304.856 338.955 311.026C339.865 315.146 339.675 329.167 340.045 333.337Z" fill="#3E89CC"/>
<path d="M294.275 269.264C294.275 269.264 292.985 267.844 292.605 267.304C292.225 266.764 290.435 266.674 289.935 265.614C289.435 264.554 288.395 263.094 289.515 262.554C290.635 262.014 290.595 261.974 290.895 261.554C291.185 261.134 289.015 259.554 288.645 258.344C288.265 257.134 291.645 259.964 292.145 260.674C292.645 261.384 293.435 260.754 293.935 262.004C294.435 263.254 294.555 264.834 295.815 266.624" fill="#FFCCB0"/>
<path d="M314.544 266.175C311.584 268.405 306.524 275.805 305.604 276.865C305.604 276.865 309.304 279.595 306.544 282.735C309.634 281.175 312.824 278.705 316.144 276.075C317.824 274.745 318.914 275.875 318.914 275.875L318.934 263.645C318.934 263.655 316.504 264.695 314.544 266.175Z" fill="#FFCCB0"/>
<path d="M295.545 265.254C295.545 265.254 292.225 267.744 292.745 268.244C293.265 268.754 303.005 282.764 305.585 282.964C306.645 283.044 308.025 281.784 308.305 280.434C308.415 279.934 308.495 279.404 308.565 278.874C307.505 274.824 295.545 265.254 295.545 265.254Z" fill="#FFCCB0"/>
<path d="M314.544 266.175C311.584 268.405 306.524 275.805 305.604 276.865C305.604 276.865 309.304 279.595 306.544 282.735C309.634 281.175 312.824 278.705 316.144 276.075C317.824 274.745 318.914 275.875 318.914 275.875L318.934 263.645C318.934 263.655 316.504 264.695 314.544 266.175Z" fill="#43C1E8"/>
<path d="M295.545 265.254C295.545 265.254 292.225 267.744 292.745 268.244C293.265 268.754 303.005 282.764 305.585 282.964C306.645 283.044 308.025 281.784 308.305 280.434C308.415 279.934 308.495 279.404 308.565 278.874C307.505 274.824 295.545 265.254 295.545 265.254Z" fill="#43C1E8"/>
<path d="M322.965 245.215C322.065 245.475 321.595 246.635 321.285 247.425C320.915 248.385 320.735 249.395 320.615 250.415C320.535 251.125 320.485 251.865 320.765 252.515C320.905 252.845 321.135 253.145 321.355 253.425C321.475 253.585 321.605 253.755 321.775 253.875C321.945 253.995 322.165 254.045 322.355 253.975C322.635 253.865 322.745 253.535 322.825 253.245C323.345 251.355 323.905 249.455 324.975 247.815" fill="#170D54"/>
<path d="M321.965 251.184C321.945 250.584 321.315 250.194 320.765 250.814C320.315 251.324 320.195 252.304 320.165 253.024C320.135 253.884 320.805 254.054 321.355 254.184" fill="#FFCCB0"/>
<path d="M314.616 266.124C316.026 264.954 319.116 262.744 323.816 262.894C327.056 262.994 335.886 263.534 336.866 265.704C337.366 266.814 337.916 278.164 337.176 282.074C336.616 285.014 335.196 292.304 335.196 294.064C335.196 295.824 336.146 296.574 335.696 297.084C334.706 298.224 327.956 298.704 324.786 298.704C321.966 298.704 317.156 297.954 316.916 297.044C316.556 295.704 317.466 295.754 317.586 294.344C317.706 292.934 318.066 283.804 317.546 282.314C316.616 279.614 316.156 275.214 315.416 273.224C314.866 271.714 313.316 267.204 314.616 266.124Z" fill="#43C1E8"/>
<path d="M334.695 275.295C335.035 275.995 337.315 279.665 337.315 279.665L337.405 280.105C337.345 280.865 337.275 281.535 337.175 282.065C336.615 285.005 335.195 292.295 335.195 294.055C335.195 295.815 336.095 296.535 335.695 297.075C334.915 298.135 322.185 300.505 322.805 297.555C322.865 297.285 333.495 289.175 333.555 288.905C334.045 286.575 334.475 284.895 334.685 283.205C335.215 279.135 334.365 274.595 334.695 275.295Z" fill="#36B2CE"/>
<path d="M322.735 259.027C322.735 259.027 322.705 262.717 322.555 262.867C322.405 263.017 321.675 263.357 321.675 263.357C321.675 263.357 322.195 266.567 322.995 266.327C323.795 266.087 329.105 263.407 329.105 263.407C329.105 263.407 328.355 263.097 328.355 262.807C328.355 262.507 329.065 256.707 329.065 256.707" fill="#FFCCB0"/>
<path d="M326.415 245.617C325.645 245.827 323.605 245.407 323.035 246.247C322.475 247.087 321.985 249.127 321.765 249.697C321.345 250.817 321.075 252.017 320.765 253.167C320.365 254.667 319.715 257.427 321.185 258.687C321.605 259.047 321.795 259.167 322.325 259.267C323.025 259.397 323.715 259.537 324.415 259.657C325.495 259.847 326.695 260.077 327.765 259.727C329.195 259.257 329.985 257.287 330.355 255.957L332.465 248.287L326.415 245.617Z" fill="#FFCCB0"/>
<path d="M322.605 267.777C322.605 267.777 322.295 282.187 321.705 290.947L323.825 293.867L325.285 290.207C325.285 290.207 325.895 279.637 323.905 267.877L322.605 267.777Z" fill="#7BE6FF"/>
<path d="M322.115 266.505L322.165 266.705C322.255 267.075 322.405 267.435 322.605 267.775L323.905 267.875C323.905 267.875 324.785 267.415 324.905 266.915C325.025 266.415 323.455 265.605 323.455 265.605L323.265 265.675C322.825 265.845 322.435 266.125 322.135 266.485L322.115 266.505Z" fill="#7BE6FF"/>
<path d="M328.455 261.906C328.455 261.906 329.285 262.426 329.935 263.406C329.265 264.936 327.755 267.656 326.095 268.886C325.315 266.796 323.455 265.586 323.455 265.586C323.455 265.586 327.985 264.786 328.455 261.906Z" fill="#36B2CE"/>
<path d="M323.455 265.595C323.455 265.595 321.835 266.235 320.865 268.055C320.865 268.055 320.555 265.605 321.215 263.495C321.215 263.495 322.275 262.135 322.645 262.105C322.495 263.835 323.455 265.595 323.455 265.595Z" fill="#36B2CE"/>
<path d="M322.175 297.578C320.565 297.818 319.965 298.418 319.065 299.318C318.995 299.388 318.915 299.488 318.925 299.588C318.945 299.718 319.095 299.778 319.225 299.798C319.975 299.918 320.095 299.438 320.795 299.148C321.265 298.948 321.735 298.748 322.205 298.538" fill="#F2A181"/>
<path d="M317.525 288.426L323.235 306.716C323.385 307.206 323.105 307.626 322.635 307.636L310.725 308.676C310.295 308.676 309.865 308.346 309.725 307.906L303.585 289.896C303.435 289.406 304.135 288.706 304.615 288.696L316.525 287.656C316.955 287.646 317.395 287.986 317.525 288.426Z" fill="#155E82"/>
<path d="M317.136 288.895L322.766 306.905C322.916 307.395 322.636 307.815 322.166 307.825L310.256 308.865C309.826 308.865 309.396 308.535 309.256 308.095L303.626 290.085C303.476 289.595 303.756 289.175 304.226 289.165L316.136 288.125C316.566 288.125 317.006 288.465 317.136 288.895Z" fill="#1B6796"/>
<path d="M307.625 288.314L308.045 289.894L313.615 289.404L313.155 287.824L307.625 288.314Z" fill="white"/>
<path d="M308.685 286.846C308.795 287.216 309.245 288.636 309.245 288.636L311.905 288.386L311.345 286.596C311.105 285.826 310.315 285.256 309.585 285.326C308.845 285.396 308.445 286.076 308.685 286.846ZM309.265 286.816C309.135 286.386 309.355 286.006 309.765 285.966C310.175 285.926 310.615 286.246 310.755 286.676C310.885 287.106 310.665 287.486 310.255 287.526C309.845 287.566 309.405 287.246 309.265 286.816Z" fill="white"/>
<path d="M326.715 296.297C325.465 296.557 322.135 297.547 321.785 297.717C321.365 297.917 319.985 298.957 319.665 299.287C318.415 300.547 319.055 301.127 318.555 302.837C318.525 302.927 318.525 303.017 318.525 303.107C318.525 303.287 318.765 303.437 319.005 303.267C319.135 303.487 319.525 303.347 319.705 303.107C319.705 303.277 319.945 303.387 320.325 303.177C320.535 303.067 320.495 303.077 320.975 302.647C321.315 302.337 321.715 302.097 322.325 301.827C322.735 301.637 323.265 301.477 323.645 301.227C324.155 300.897 325.055 300.817 325.495 299.367C325.595 299.047 325.905 298.847 326.185 298.677C326.865 298.247 327.545 297.827 328.225 297.397" fill="#FFCCB0"/>
<path d="M334.385 272.867C334.915 274.757 337.115 287.847 337.115 287.847L324.705 296.837L325.735 299.547C325.735 299.547 340.585 294.557 341.755 291.157C342.925 287.747 342.875 272.357 338.745 266.957C337.435 265.237 334.805 264.367 334.805 264.367" fill="#43C1E8"/>
<path d="M321.665 301.008C321.665 301.008 321.545 301.118 321.355 301.298C321.165 301.468 320.915 301.668 320.715 301.928C320.505 302.188 320.295 302.448 320.115 302.628C319.935 302.808 319.795 302.908 319.795 302.908C319.795 302.908 320.095 302.308 320.555 301.788C320.775 301.518 321.085 301.338 321.295 301.208C321.515 301.088 321.665 301.008 321.665 301.008Z" fill="#F2A181"/>
<path d="M320.975 300.188C320.975 300.188 320.805 300.318 320.625 300.578C320.525 300.698 320.425 300.858 320.315 301.018C320.265 301.098 320.205 301.188 320.155 301.268C320.095 301.358 320.055 301.428 320.015 301.538C319.685 302.338 319.135 302.997 319.135 302.997C319.135 302.997 319.205 302.798 319.335 302.508C319.465 302.218 319.645 301.838 319.825 301.458C320.025 301.048 320.315 300.748 320.545 300.508C320.775 300.278 320.975 300.188 320.975 300.188Z" fill="#F2A181"/>
<path d="M320.195 299.516C320.195 299.516 320.085 299.696 319.895 299.936C319.805 300.056 319.675 300.196 319.575 300.346C319.495 300.496 319.415 300.706 319.335 300.886C319.045 301.646 318.745 302.416 318.745 302.416C318.745 302.416 318.745 302.206 318.795 301.896C318.845 301.586 318.965 301.186 319.145 300.806C319.235 300.616 319.315 300.436 319.445 300.266C319.575 300.116 319.705 299.986 319.815 299.886C320.055 299.676 320.195 299.516 320.195 299.516Z" fill="#F2A181"/>
<path d="M331.146 254.626C330.656 254.346 330.286 254.046 329.966 254.506C329.796 254.756 329.696 255.096 329.406 255.176C329.116 255.256 328.826 255.006 328.756 254.716C328.686 254.426 328.776 254.126 328.866 253.846C329.066 253.216 329.256 252.586 329.456 251.956C329.646 251.336 329.836 250.666 329.596 250.066C329.476 249.766 329.246 249.516 328.996 249.306C328.186 248.616 327.136 248.276 326.096 248.066C325.056 247.856 323.996 247.746 322.976 247.426C322.546 247.296 322.126 247.116 321.786 246.826C321.236 246.356 320.956 245.626 320.946 244.906C320.936 244.186 321.186 243.476 321.556 242.856C321.636 243.106 321.736 243.346 321.866 243.566C321.996 243.236 322.186 242.926 322.436 242.676C322.736 244.366 329.846 243.796 331.516 244.546C332.666 245.066 333.616 245.396 333.586 247.266C333.616 247.386 333.716 247.476 333.816 247.566C334.836 248.506 335.276 249.646 335.406 251.336C335.566 253.406 334.356 255.646 333.176 257.356C332.876 257.786 332.716 258.086 332.296 258.406C331.876 258.726 331.156 258.876 330.646 258.776C330.136 258.676 329.126 258.726 329.116 258.196C329.106 257.826 329.906 257.156 330.126 256.856" fill="#3B2E7A"/>
<path d="M329.285 256.585C329.285 256.585 329.205 256.935 329.415 257.205C329.605 257.445 329.995 257.415 330.255 257.325C331.015 257.085 331.535 256.345 331.675 255.585C331.845 254.685 331.365 253.795 330.545 254.025C330.065 254.165 329.765 254.705 329.775 255.205" fill="#FFCCB0"/>
<path d="M322.735 259.348L325.015 259.768C325.015 259.768 324.255 260.618 322.705 260.618" fill="#F2A181"/>
<path d="M29.1148 243.908C29.1148 244.998 28.2348 245.878 27.1448 245.878C26.0548 245.878 25.1748 244.998 25.1748 243.908C25.1748 242.818 26.0548 241.938 27.1448 241.938C28.2348 241.938 29.1148 242.818 29.1148 243.908Z" fill="#BDD0FF"/>
<path d="M88.4146 141.876C88.4146 142.966 87.5346 143.846 86.4446 143.846C85.3546 143.846 84.4746 142.966 84.4746 141.876C84.4746 140.786 85.3546 139.906 86.4446 139.906C87.5346 139.906 88.4146 140.786 88.4146 141.876Z" fill="#BDD0FF"/>
<path d="M68.105 165.126C68.105 166.216 67.225 167.096 66.135 167.096C65.045 167.096 64.165 166.216 64.165 165.126C64.165 164.036 65.045 163.156 66.135 163.156C67.225 163.156 68.105 164.036 68.105 165.126Z" fill="#BDD0FF"/>
<path d="M88.4146 87.9973C88.4146 89.0873 87.5346 89.9673 86.4446 89.9673C85.3546 89.9673 84.4746 89.0873 84.4746 87.9973C84.4746 86.9073 85.3546 86.0273 86.4446 86.0273C87.5346 86.0373 88.4146 86.9173 88.4146 87.9973Z" fill="#BDD0FF"/>
<path d="M151.395 34.5872C151.395 35.6772 150.515 36.5572 149.425 36.5572C148.335 36.5572 147.455 35.6772 147.455 34.5872C147.455 33.4972 148.335 32.6172 149.425 32.6172C150.515 32.6172 151.395 33.4972 151.395 34.5872Z" fill="#BDD0FF"/>
<path d="M272.405 74.888C272.405 75.978 271.525 76.858 270.435 76.858C269.345 76.858 268.465 75.978 268.465 74.888C268.465 73.798 269.345 72.918 270.435 72.918C271.525 72.918 272.405 73.808 272.405 74.888Z" fill="#BDD0FF"/>
<path d="M348.935 166.588C350.023 166.588 350.905 165.706 350.905 164.618C350.905 163.53 350.023 162.648 348.935 162.648C347.847 162.648 346.965 163.53 346.965 164.618C346.965 165.706 347.847 166.588 348.935 166.588Z" fill="#BDD0FF"/>
<path d="M73.395 230.645C72.965 230.645 72.625 230.295 72.625 229.875V224.415C72.625 223.985 72.975 223.645 73.395 223.645C73.815 223.645 74.165 223.995 74.165 224.415V229.875C74.165 230.295 73.825 230.645 73.395 230.645Z" fill="#BDD0FF"/>
<path d="M76.1245 227.915H70.6645C70.2345 227.915 69.8945 227.565 69.8945 227.145C69.8945 226.725 70.2445 226.375 70.6645 226.375H76.1245C76.5545 226.375 76.8945 226.725 76.8945 227.145C76.8945 227.565 76.5545 227.915 76.1245 227.915Z" fill="#BDD0FF"/>
<path d="M327.075 90.7266C326.645 90.7266 326.305 90.3766 326.305 89.9566V84.4966C326.305 84.0666 326.655 83.7266 327.075 83.7266C327.495 83.7266 327.845 84.0766 327.845 84.4966V89.9566C327.855 90.3866 327.505 90.7266 327.075 90.7266Z" fill="#BDD0FF"/>
<path d="M329.805 87.997H324.345C323.915 87.997 323.575 87.647 323.575 87.227C323.575 86.807 323.925 86.457 324.345 86.457H329.805C330.235 86.457 330.575 86.807 330.575 87.227C330.575 87.647 330.235 87.997 329.805 87.997Z" fill="#BDD0FF"/>
<path d="M253.406 7.67578C252.976 7.67578 252.636 7.32578 252.636 6.90578V1.44578C252.636 1.01578 252.986 0.675781 253.406 0.675781C253.826 0.675781 254.176 1.02578 254.176 1.44578V6.90578C254.186 7.32578 253.836 7.67578 253.406 7.67578Z" fill="#BDD0FF"/>
<path d="M256.135 4.94625H250.675C250.245 4.94625 249.905 4.59625 249.905 4.17625C249.905 3.75625 250.255 3.40625 250.675 3.40625H256.135C256.565 3.40625 256.905 3.75625 256.905 4.17625C256.905 4.59625 256.565 4.94625 256.135 4.94625Z" fill="#BDD0FF"/>
<path d="M347.305 221.637C346.875 221.637 346.535 221.287 346.535 220.867V215.407C346.535 214.977 346.885 214.637 347.305 214.637C347.725 214.637 348.075 214.987 348.075 215.407V220.867C348.075 221.287 347.725 221.637 347.305 221.637Z" fill="#BDD0FF"/>
<path d="M350.025 218.907H344.565C344.135 218.907 343.795 218.557 343.795 218.137C343.795 217.717 344.145 217.367 344.565 217.367H350.025C350.455 217.367 350.795 217.717 350.795 218.137C350.795 218.557 350.455 218.907 350.025 218.907Z" fill="#BDD0FF"/>
<path d="M292.675 206.266C292.245 206.266 291.905 205.916 291.905 205.496V200.036C291.905 199.606 292.255 199.266 292.675 199.266C293.095 199.266 293.445 199.616 293.445 200.036V205.496C293.445 205.926 293.105 206.266 292.675 206.266Z" fill="#BDD0FF"/>
<path d="M295.405 203.544H289.945C289.515 203.544 289.175 203.194 289.175 202.774C289.175 202.354 289.525 202.004 289.945 202.004H295.405C295.835 202.004 296.175 202.354 296.175 202.774C296.175 203.194 295.825 203.544 295.405 203.544Z" fill="#BDD0FF"/>
<defs>
<linearGradient id="paint0_linear_1353_175714" x1="202.565" y1="225.446" x2="202.565" y2="353.97" gradientUnits="userSpaceOnUse">
<stop stop-color="#3FABFF"/>
<stop offset="1" stop-color="#D9E8FF"/>
</linearGradient>
<linearGradient id="paint1_linear_1353_175714" x1="206.648" y1="248.491" x2="206.842" y2="167.841" gradientUnits="userSpaceOnUse">
<stop stop-color="white" stop-opacity="0.4"/>
<stop offset="1" stop-color="white"/>
</linearGradient>
</defs>
</svg>
