<svg width="1440" height="850" viewBox="0 0 1440 850" fill="none" xmlns="http://www.w3.org/2000/svg">
<g clip-path="url(#clip0_2387_172005)">
<path d="M0 375L1440 59.5V375L0 698V375Z" fill="#66C5FF" fill-opacity="0.05"/>
<path d="M0 594L58.5 580V618L0 632V594Z" fill="#003060"/>
<path d="M1440 104L1381.5 118V80.0002L1440 66.0002V104Z" fill="#003060"/>
<path d="M0 630.719L300 565V630.719L0 698V630.719Z" fill="#3399FF"/>
<path d="M1440 67.2811L1140 133V67.2811L1440 0V67.2811Z" fill="#3399FF"/>
<path d="M408 757L556 708V793L408 840.5V757Z" fill="#DFDFDF" fill-opacity="0.5"/>
<path d="M1023 53.5L875 102.5V17.5L1023 -30V53.5Z" fill="#DFDFDF" fill-opacity="0.5"/>
<path d="M408.053 151.525L408.25 151.482V151.281V84V83.6877L407.945 83.7561L107.945 151.037L107.75 151.081V151.281V217V217.311L108.053 217.244L408.053 151.525Z" stroke="#B7B7B7" stroke-opacity="0.5" stroke-width="0.5"/>
<path d="M1126.95 706.475L1126.75 706.518V706.719V774V774.312L1127.05 774.244L1427.05 706.963L1427.25 706.919V706.719V641V640.689L1426.95 640.756L1126.95 706.475Z" stroke="#B7B7B7" stroke-opacity="0.5" stroke-width="0.5"/>
</g>
<defs>
<clipPath id="clip0_2387_172005">
<rect width="1440" height="850" rx="10" fill="white"/>
</clipPath>
</defs>
</svg>
