<svg width="730" height="604" viewBox="0 0 730 604" fill="none" xmlns="http://www.w3.org/2000/svg">
<rect width="730" height="604" fill="white"/>
<g opacity="0.4">
<path d="M230.703 386.088C230.703 386.088 193.693 363.815 207.231 334.02C215.191 316.498 249.738 323.023 246.106 293.866C241.34 255.637 203.376 229.883 225.283 197.187C247.843 163.523 304.161 203.676 359.216 168.059C394.746 145.068 457.991 132.206 480.917 168.756C502.817 203.676 459.039 242.523 490.823 268.615C522.606 294.706 559.006 334.077 478.656 380.468C474.658 382.779 471.141 386.799 466.784 386.799C399.857 386.799 338.17 386.598 338.17 386.598" fill="#969696"/>
<path d="M223.483 353.974C215.164 352.646 222.952 377.058 234.86 373.914C246.768 370.771 230.474 355.094 223.483 353.974Z" fill="#969696"/>
<path d="M218.83 340.151C214.064 341.867 215.694 352.217 222.735 350.021C229.784 347.832 223.51 338.464 218.83 340.151Z" fill="#969696"/>
<path d="M466.777 386.803C392.177 386.602 338.163 386.602 338.163 386.602L466.777 386.803Z" fill="#969696"/>
</g>
<path d="M481.906 190.212C480.556 189.903 479.272 189.286 478.188 188.425L478.539 187.987C479.559 188.798 480.765 189.379 482.035 189.666L481.906 190.212ZM486.033 190.212L485.911 189.666C487.174 189.379 488.38 188.791 489.4 187.98L489.751 188.417C488.66 189.279 487.375 189.903 486.033 190.212ZM475.604 185.202C474.994 183.946 474.685 182.589 474.678 181.182H475.238C475.238 182.503 475.532 183.773 476.106 184.958L475.604 185.202ZM492.321 185.187L491.811 184.943C492.386 183.759 492.673 182.488 492.673 181.161L493.075 181.132L493.233 181.146C493.233 182.575 492.924 183.924 492.321 185.187ZM476.092 177.399L475.582 177.155C476.178 175.906 477.068 174.794 478.152 173.925L478.504 174.363C477.491 175.181 476.659 176.229 476.092 177.399ZM491.797 177.349C491.23 176.179 490.39 175.138 489.364 174.327L489.715 173.889C490.799 174.751 491.697 175.863 492.299 177.105L491.797 177.349ZM481.992 172.669L481.863 172.124C482.545 171.966 483.248 171.887 483.952 171.887H483.959C484.648 171.887 485.33 171.959 485.997 172.109L485.875 172.655C485.251 172.518 484.605 172.447 483.959 172.447C483.291 172.447 482.631 172.526 481.992 172.669Z" fill="#2E363D"/>
<path d="M220.444 308.106H220.279L220.286 307.546H220.444C221.686 307.546 222.921 307.41 224.126 307.151L224.249 307.697C223.007 307.962 221.729 308.106 220.444 308.106ZM216.317 307.618C215.018 307.309 213.762 306.85 212.563 306.254L212.814 305.752C213.97 306.326 215.19 306.771 216.446 307.065L216.317 307.618ZM228.024 306.405L227.78 305.895C228.943 305.342 230.048 304.661 231.06 303.857L231.412 304.302C230.364 305.127 229.223 305.831 228.024 306.405ZM209.218 304.093C208.184 303.247 207.251 302.285 206.433 301.237L206.878 300.892C207.668 301.911 208.572 302.845 209.57 303.663L209.218 304.093ZM234.247 301.488L233.809 301.136C234.621 300.131 235.317 299.033 235.877 297.87L236.379 298.114C235.805 299.32 235.08 300.454 234.247 301.488ZM204.366 297.827C203.806 296.621 203.382 295.344 203.11 294.037L203.662 293.922C203.928 295.186 204.337 296.42 204.875 297.59L204.366 297.827ZM237.707 294.353L237.162 294.231C237.449 292.982 237.592 291.69 237.592 290.391H238.152C238.152 291.733 238.001 293.061 237.707 294.353ZM203.296 290.075L202.736 290.068C202.758 288.733 202.937 287.398 203.253 286.113L203.799 286.249C203.49 287.491 203.318 288.783 203.296 290.075ZM237.291 287.168C237.047 285.897 236.666 284.663 236.142 283.479L236.659 283.249C237.197 284.469 237.592 285.754 237.843 287.06L237.291 287.168ZM205.148 282.624L204.646 282.373C205.249 281.189 205.988 280.069 206.842 279.043L207.273 279.401C206.447 280.392 205.737 281.476 205.148 282.624ZM234.197 280.148C233.429 279.114 232.539 278.167 231.556 277.327L231.922 276.896C232.934 277.758 233.853 278.741 234.649 279.803L234.197 280.148ZM210.072 276.731L209.735 276.286C210.797 275.482 211.946 274.793 213.159 274.248L213.388 274.757C212.218 275.289 211.099 275.949 210.072 276.731ZM228.347 275.167C227.199 274.571 225.986 274.104 224.737 273.781L224.88 273.236C226.172 273.566 227.421 274.047 228.606 274.664L228.347 275.167ZM217.071 273.573L216.963 273.02C218.104 272.791 219.274 272.676 220.444 272.676C220.609 272.676 220.774 272.676 220.939 272.683L220.925 273.243C220.767 273.236 220.595 273.229 220.444 273.236C219.303 273.243 218.169 273.358 217.071 273.573Z" fill="#2E363D"/>
<path d="M237.033 305.571C239.982 305.571 242.373 303.18 242.373 300.231C242.373 297.282 239.982 294.891 237.033 294.891C234.083 294.891 231.692 297.282 231.692 300.231C231.692 303.18 234.083 305.571 237.033 305.571Z" fill="#2E363D"/>
<path d="M472.669 293.664C474.841 293.664 476.602 291.903 476.602 289.73C476.602 287.558 474.841 285.797 472.669 285.797C470.496 285.797 468.735 287.558 468.735 289.73C468.735 291.903 470.496 293.664 472.669 293.664Z" fill="#2E363D"/>
<path d="M480.305 174.4C480.305 175.95 479.049 177.213 477.491 177.213C475.941 177.213 474.678 175.957 474.678 174.4C474.678 172.842 475.934 171.586 477.491 171.586C479.042 171.586 480.305 172.842 480.305 174.4Z" fill="#2E363D"/>
<path d="M336.971 171.588C336.971 173.914 335.083 175.802 332.758 175.802C330.432 175.802 328.537 173.914 328.537 171.588C328.537 169.263 330.425 167.375 332.758 167.375C335.083 167.375 336.971 169.263 336.971 171.588Z" fill="#2E363D"/>
<path d="M340.343 184.522C340.006 184.522 339.676 184.501 339.346 184.458L339.417 183.898C340.666 184.063 341.958 183.883 343.121 183.388L343.344 183.905C342.389 184.314 341.384 184.522 340.343 184.522ZM335.627 182.878C334.551 182.024 333.725 180.897 333.244 179.62L333.768 179.419C334.22 180.603 334.981 181.644 335.979 182.433L335.627 182.878ZM346.488 181.378L346.035 181.048C346.782 180.022 347.234 178.809 347.342 177.545L347.902 177.596C347.78 178.959 347.299 180.266 346.488 181.378ZM333.309 176.928H332.749C332.749 175.557 333.122 174.208 333.819 173.038L334.299 173.325C333.653 174.409 333.309 175.657 333.309 176.928ZM346.667 173.87C346.114 172.729 345.26 171.76 344.205 171.056L344.514 170.59C345.655 171.344 346.581 172.392 347.177 173.626L346.667 173.87ZM337.006 170.741L336.74 170.245C337.939 169.599 339.324 169.284 340.673 169.348L340.652 169.908C339.403 169.858 338.111 170.145 337.006 170.741Z" fill="#2E363D"/>
<path d="M481.296 304.786C479.933 304.685 478.633 304.312 477.435 303.673L477.7 303.178C478.834 303.781 480.062 304.132 481.347 304.226L481.296 304.786ZM485.28 304.269L485.093 303.738C486.306 303.314 487.398 302.654 488.338 301.778L488.718 302.187C487.728 303.12 486.565 303.817 485.28 304.269ZM474.334 301.096C473.48 300.027 472.877 298.821 472.525 297.5L473.07 297.356C473.401 298.598 473.975 299.732 474.779 300.744L474.334 301.096ZM491.058 298.914L490.541 298.691C491.051 297.521 491.317 296.273 491.317 294.981H491.877C491.877 296.344 491.604 297.665 491.058 298.914ZM491.259 293.961C491.123 292.684 490.728 291.471 490.082 290.358L490.57 290.078C491.252 291.262 491.668 292.547 491.819 293.904L491.259 293.961ZM472.862 293.574L472.31 293.487C472.511 292.138 472.984 290.875 473.716 289.719L474.19 290.021C473.501 291.112 473.056 292.303 472.862 293.574ZM487.57 287.523C486.536 286.755 485.381 286.216 484.124 285.929L484.254 285.384C485.582 285.685 486.809 286.259 487.907 287.07L487.57 287.523ZM476.824 287.3L476.509 286.834C477.636 286.066 478.892 285.549 480.227 285.305L480.327 285.857C479.071 286.087 477.894 286.575 476.824 287.3Z" fill="#2E363D"/>
<path d="M411.225 309.482L414.032 320.041L472.611 320.306C474.29 320.314 475.123 321.598 474.463 323.17L448.471 385.051C447.983 386.221 446.419 387.154 444.983 387.147L348.907 386.716C347.471 386.709 346.452 385.762 346.646 384.592L356.35 325.108L357.219 319.79L358.712 310.638C358.985 308.98 360.6 307.637 362.329 307.645L408.9 307.853C410.055 307.853 410.96 308.484 411.225 309.482Z" fill="#006699"/>
<path d="M362.323 307.637L408.894 307.845C410.056 307.852 410.961 308.484 411.219 309.481L414.026 320.04L471.506 320.299" stroke="#121D30" stroke-width="0.75" stroke-miterlimit="10"/>
<path d="M353.749 332.566H438.771V288.982H353.749V332.566Z" fill="white"/>
<path d="M361.448 288.984H421.98" stroke="#121D30" stroke-width="0.75" stroke-miterlimit="10"/>
<path d="M389.434 307.04L394.286 316.357H444.23C445.666 316.357 446.828 317.519 446.828 318.955V384.54C446.828 385.975 445.666 387.138 444.23 387.138H348.448C347.012 387.138 345.85 385.975 345.85 384.54V321.223V316.349V308.231C345.85 306.796 347.012 305.633 348.448 305.633H387.137C388.099 305.647 388.989 306.186 389.434 307.04Z" fill="#0099CC"/>
<path d="M348.448 305.648H387.137C388.106 305.648 388.996 306.187 389.441 307.048L394.294 316.365H444.237" stroke="#121D30" stroke-width="0.75" stroke-miterlimit="10"/>
<path d="M440.57 332.526C448.15 332.526 454.294 326.382 454.294 318.802C454.294 311.223 448.15 305.078 440.57 305.078C432.99 305.078 426.846 311.223 426.846 318.802C426.846 326.382 432.99 332.526 440.57 332.526Z" fill="#121D30"/>
<path d="M446.421 323.899L441.317 318.795L446.421 313.692C446.629 313.484 446.629 313.153 446.421 312.945C446.212 312.737 445.882 312.737 445.674 312.945L440.571 318.049L435.467 312.945C435.259 312.737 434.929 312.737 434.721 312.945C434.512 313.153 434.512 313.484 434.721 313.692L439.824 318.795L434.721 323.899C434.512 324.107 434.512 324.437 434.721 324.645C434.929 324.853 435.259 324.853 435.467 324.645L440.571 319.542L445.674 324.645C445.882 324.853 446.212 324.853 446.421 324.645C446.622 324.444 446.629 324.107 446.421 323.899Z" fill="white"/>
<path d="M385.242 364.947C393.669 353.548 404.292 358.228 406.984 364.947" stroke="#121D30" stroke-width="0.75" stroke-miterlimit="10"/>
<path d="M383.484 341.087C383.484 344.058 382.156 346.47 380.513 346.47C378.869 346.47 377.541 344.058 377.541 341.087C377.541 338.115 378.869 335.703 380.513 335.703C382.149 335.703 383.484 338.115 383.484 341.087Z" fill="#121D30"/>
<path d="M414.701 341.087C414.701 344.058 413.373 346.47 411.729 346.47C410.086 346.47 408.758 344.058 408.758 341.087C408.758 338.115 410.086 335.703 411.729 335.703C413.366 335.703 414.701 338.115 414.701 341.087Z" fill="#121D30"/>
<path d="M290.644 184.4C290.644 184.4 296.393 176.017 303.586 180.194C312.587 185.427 301.719 197.895 308.366 201.505C315.02 205.116 321.897 205.396 323.813 215.373C326.318 228.422 302.717 246.769 282.755 235.155C262.794 223.541 269.9 201.807 279.267 197.478C290.551 192.267 290.644 184.4 290.644 184.4Z" fill="#121D30"/>
<path d="M294.585 204.082V215.603C294.585 217.096 293.975 218.445 292.998 219.421C292.022 220.397 290.673 221.008 289.187 221.008C286.201 221.008 283.789 218.589 283.789 215.603V204.082H294.585Z" fill="#D28A7B"/>
<path d="M275.547 200.522C275.992 202.711 278.131 204.125 280.32 203.673C282.51 203.228 283.924 201.089 283.471 198.899C283.026 196.71 280.887 195.296 278.698 195.748C276.509 196.193 275.102 198.332 275.547 200.522Z" fill="#D28A7B"/>
<path d="M276.659 198.988L279.861 201.156" stroke="#121D30" stroke-width="0.75" stroke-miterlimit="10"/>
<path d="M298.454 199.713C298.899 201.902 301.038 203.316 303.228 202.864C305.417 202.419 306.831 200.28 306.379 198.091C305.934 195.902 303.795 194.487 301.605 194.94C299.416 195.385 298.002 197.524 298.454 199.713Z" fill="#D28A7B"/>
<path d="M302.036 198.902C302.036 198.902 304.348 196.368 303.536 190.367H300.292L302.036 198.902Z" fill="#121D30"/>
<path d="M301.749 200.685L304.886 197.648" stroke="#121D30" stroke-width="0.75" stroke-miterlimit="10"/>
<path d="M291.892 183.09C297.699 183.09 302.415 187.799 302.415 193.613V202.255C302.415 202.47 302.4 202.678 302.372 202.887C302.221 203.906 301.697 204.846 300.886 205.514L296.622 209.06C295.33 210.136 293.521 210.344 292.007 209.583L283.702 205.42C282.266 204.695 281.369 203.231 281.369 201.63V193.605C281.376 187.799 286.085 183.09 291.892 183.09Z" fill="#D28A7B"/>
<path d="M286.962 206.988L291.793 209.414C292.611 209.824 293.508 210.039 294.427 210.039H294.786" stroke="#121D30" stroke-width="0.75" stroke-miterlimit="10"/>
<path d="M293.543 183.09L296.221 201.508H292.861" stroke="#121D30" stroke-width="0.75" stroke-miterlimit="10"/>
<path d="M302.415 196.466V201.863C302.293 201.878 302.164 201.892 302.027 201.892C300.52 201.892 299.3 200.672 299.3 199.165C299.3 197.657 300.52 196.444 302.027 196.444C302.157 196.437 302.293 196.444 302.415 196.466Z" fill="#CB705D"/>
<path d="M289.596 199.165C289.596 200.672 288.376 201.893 286.868 201.893C285.361 201.893 284.141 200.672 284.141 199.165C284.141 197.658 285.361 196.438 286.868 196.438C288.376 196.438 289.596 197.658 289.596 199.165Z" fill="#CB705D"/>
<path d="M281.377 192.62V199.439C281.377 199.439 284.083 197.034 284.011 192.297L281.377 192.62Z" fill="#121D30"/>
<path d="M305.431 181.638C298.239 177.46 290.638 184.394 290.638 184.394C290.638 184.394 294.313 192.297 279.268 197.472C276.791 198.326 273.705 202.482 272.212 204.858C272.212 204.858 275.507 195.355 276.547 189.203C277.588 183.052 283.058 183.999 283.058 183.999C283.058 183.999 286.367 175.902 295.526 175.945C301.878 175.974 305.431 181.638 305.431 181.638Z" fill="#121D30"/>
<path d="M300.262 196.969C300.262 197.917 299.845 198.685 299.322 198.685C298.805 198.685 298.374 197.917 298.374 196.969C298.374 196.201 298.654 195.555 299.034 195.34H299.042L300.197 196.359C300.233 196.546 300.262 196.754 300.262 196.969Z" fill="#121D30"/>
<path d="M290.378 196.968C290.378 197.916 289.962 198.684 289.438 198.684C288.914 198.684 288.49 197.916 288.49 196.968C288.49 196.695 288.526 196.437 288.591 196.207L289.911 195.504C290.199 195.805 290.378 196.351 290.378 196.968Z" fill="#121D30"/>
<path d="M298.31 189.453C299.616 188.599 300.441 188.793 300.248 190.609L298.31 189.453Z" fill="#121D30"/>
<path d="M287.637 190.65C287.342 189.121 287.83 188.424 289.438 189.293L287.637 190.65Z" fill="#121D30"/>
<path d="M291.893 204.92C293.314 203.004 295.101 203.786 295.553 204.92" stroke="#121D30" stroke-width="0.75" stroke-miterlimit="10"/>
<path d="M312.049 254.068C314.575 252.769 315.566 249.661 314.267 247.135L302.43 223.469C301.131 220.942 298.023 219.952 295.496 221.251C292.97 222.55 291.979 225.658 293.278 228.185L304.871 250.925C305.833 252.748 307.57 254.097 309.608 254.391C310.434 254.506 311.288 254.456 312.049 254.068Z" fill="#D28A7B"/>
<path d="M263.705 258.771C260.949 258.067 259.284 255.268 259.987 252.512L266.211 226.793C266.914 224.037 269.713 222.372 272.47 223.075C275.226 223.779 276.891 226.578 276.188 229.334L269.993 254.091C269.469 256.086 268.077 257.788 266.16 258.534C265.378 258.836 264.538 258.979 263.705 258.771Z" fill="#D28A7B"/>
<path d="M311.862 233.63L301.985 232.977L291.599 236.357L301.985 236.759L311.862 233.63Z" fill="#0099CC"/>
<path d="M308.625 224.414L310.247 237.348L294.671 239.495L296.946 216.324L301.203 216.906C305.093 217.444 308.137 220.516 308.625 224.414Z" fill="#0099CC"/>
<path d="M311.862 233.629L301.985 236.758L291.599 236.357L293.587 242.178L302.717 241.704L312.393 238.682L311.862 233.629Z" fill="white"/>
<path d="M300.729 257.396H280.136L266.9 231.728C264.718 227.5 266.541 222.31 270.876 220.365L284.55 214.242L296.939 216.331C301.225 217.056 304.225 220.968 303.809 225.296L300.729 257.396Z" fill="#0099CC"/>
<path d="M295.195 223.509L296.724 213.409L279.396 211.723L281.004 223.509H295.195Z" fill="#0099CC"/>
<path d="M281.349 219.209C283.947 222.54 287.005 224.392 290.012 224.392C292.769 224.392 295.015 222.827 296.351 220.135C296.3 221.348 296.221 222.762 296.078 224.219C295.568 229.603 294.527 233.228 293.085 234.699C292.611 235.187 292.101 235.424 291.541 235.424C291.312 235.424 291.06 235.381 290.809 235.302C288.232 234.484 285.641 230.938 283.33 225.059C282.483 222.92 281.815 220.831 281.349 219.209ZM280.014 216.273C280.014 216.273 283.94 233.687 290.637 235.819C290.953 235.919 291.254 235.97 291.534 235.97C297.298 235.97 296.939 216.338 296.939 216.338C296.193 221.197 293.393 223.86 290.005 223.86C286.797 223.853 283.05 221.456 280.014 216.273Z" fill="white"/>
<path d="M305.281 377.115H315.66L311.432 345.016H301.053L305.281 377.115Z" fill="#D28A7B"/>
<path d="M304.297 377.064H315.983L314.109 361.789L302.531 362.679L304.297 377.064Z" fill="white"/>
<path d="M303.379 386.596H329.894L329.198 384.227C328.968 383.452 328.631 382.741 328.193 382.088C327.274 380.71 325.924 379.647 324.317 379.08L323.599 378.829C322.895 378.578 322.235 378.255 321.618 377.86C321.094 377.523 320.598 377.135 320.161 376.697C319.199 375.757 318.438 374.608 317.95 373.316H303.056L303.3 382.088L303.379 386.596Z" fill="#121D30"/>
<path d="M313.563 374.816H318.803" stroke="#121D30" stroke-width="0.75" stroke-miterlimit="10"/>
<path d="M314.914 376.637H320.154" stroke="#121D30" stroke-width="0.75" stroke-miterlimit="10"/>
<path d="M308.359 380.212C308.345 380.571 308.632 380.858 308.983 380.858C309.335 380.858 309.637 380.571 309.651 380.212C309.665 379.854 309.385 379.566 309.026 379.566C308.668 379.566 308.366 379.854 308.359 380.212Z" stroke="#121D30" stroke-width="0.75" stroke-miterlimit="10"/>
<path d="M311.518 380.212C311.504 380.571 311.784 380.858 312.143 380.858C312.501 380.858 312.796 380.571 312.81 380.212C312.824 379.854 312.545 379.566 312.186 379.566C311.827 379.566 311.532 379.854 311.518 380.212Z" stroke="#121D30" stroke-width="0.75" stroke-miterlimit="10"/>
<path d="M303.378 386.598H329.894L329.197 384.229C328.968 383.454 328.63 382.743 328.192 382.09H303.307L303.378 386.598Z" fill="white"/>
<path d="M303.235 384.352H319.91" stroke="#121D30" stroke-width="0.75" stroke-miterlimit="10"/>
<path d="M315.015 386.599H329.894L329.198 384.23C328.969 383.455 328.631 382.744 328.193 382.091C327.275 380.713 325.925 379.651 324.317 379.084L323.599 378.832C322.896 378.581 322.236 378.258 321.618 377.863C318.173 379.464 315.603 382.723 315.015 386.599Z" fill="white"/>
<path d="M317.957 373.324L318.294 372.004C318.531 371.078 317.856 370.188 316.901 370.188H315.573C314.526 370.188 313.528 370.719 312.939 371.602L311.776 373.317H317.957V373.324Z" fill="#121D30"/>
<path d="M274.494 252.293L303.112 250.742L300.607 257.999L276.777 257.741L274.494 252.293Z" fill="#121D30"/>
<path d="M300.607 258.001C300.607 258.001 310.412 267.066 310.993 283.231H267.15C267.15 268.035 276.783 257.742 276.783 257.742L300.607 258.001Z" fill="#121D30"/>
<path d="M275.376 264.07H282.252C282.252 264.07 278.857 271.894 272.096 272.411" stroke="white" stroke-width="0.75" stroke-miterlimit="10"/>
<path d="M305.295 264.07H301.505C301.505 264.07 302.955 271.478 309.106 272.411" stroke="white" stroke-width="0.75" stroke-miterlimit="10"/>
<path d="M292.446 258.488L291.785 270.483C291.785 270.483 289.56 269.298 290.034 265.307" stroke="white" stroke-width="0.75" stroke-miterlimit="10"/>
<path d="M284.442 256.758H278.197V259.241H284.442V256.758Z" fill="#121D30"/>
<path d="M299.616 256.758H297.441V259.241H299.616V256.758Z" fill="#121D30"/>
<path d="M296.006 256.758H286.172V259.241H296.006V256.758Z" fill="#121D30"/>
<path d="M294.168 256.266H289.962V259.74H294.168V256.266Z" fill="white"/>
<path d="M265.106 377.092L275.486 377.559L280.797 342.724L270.418 342.258L265.106 377.092Z" fill="#D28A7B"/>
<path d="M264.511 377.065L276.182 377.589L278.199 361.719L266.549 362.422L264.511 377.065Z" fill="white"/>
<path d="M262.235 386.596H288.751L288.521 384.227C288.442 383.452 288.241 382.741 287.932 382.088C287.279 380.71 286.138 379.647 284.638 379.08L283.97 378.829C283.317 378.578 282.714 378.255 282.183 377.86C281.723 377.523 281.307 377.135 280.955 376.697C280.173 375.757 279.642 374.608 279.405 373.316H264.511L263.054 382.088L262.235 386.596Z" fill="#121D30"/>
<path d="M274.71 374.816H279.95" stroke="#121D30" stroke-width="0.75" stroke-miterlimit="10"/>
<path d="M275.708 376.637H280.941" stroke="#121D30" stroke-width="0.75" stroke-miterlimit="10"/>
<path d="M268.451 380.212C268.372 380.571 268.595 380.858 268.954 380.858C269.313 380.858 269.665 380.571 269.743 380.212C269.822 379.854 269.6 379.566 269.241 379.566C268.889 379.566 268.53 379.854 268.451 380.212Z" stroke="#121D30" stroke-width="0.75" stroke-miterlimit="10"/>
<path d="M271.617 380.212C271.539 380.571 271.761 380.858 272.12 380.858C272.479 380.858 272.831 380.571 272.909 380.212C272.988 379.854 272.766 379.566 272.407 379.566C272.048 379.566 271.696 379.854 271.617 380.212Z" stroke="#121D30" stroke-width="0.75" stroke-miterlimit="10"/>
<path d="M262.235 386.598H288.751L288.521 384.229C288.442 383.454 288.241 382.743 287.932 382.09H263.039L262.235 386.598Z" fill="white"/>
<path d="M279.397 384.352H262.723" stroke="#121D30" stroke-width="0.75" stroke-miterlimit="10"/>
<path d="M273.871 386.599H288.751L288.521 384.23C288.442 383.455 288.241 382.744 287.933 382.091C287.279 380.713 286.138 379.651 284.638 379.084L283.97 378.832C283.317 378.581 282.714 378.258 282.183 377.863C278.415 379.464 275.213 382.723 273.871 386.599Z" fill="white"/>
<path d="M279.397 373.324L279.993 372.004C280.416 371.078 279.907 370.188 278.952 370.188H277.624C276.576 370.188 275.478 370.719 274.71 371.602L273.217 373.317H279.397V373.324Z" fill="#121D30"/>
<path d="M290.041 282.441L296.293 358.42H317.999L310.929 282.75L290.041 282.441Z" fill="#121D30"/>
<path d="M270.582 317.262L262.938 358.42H284.643L291.463 317.57L270.582 317.262Z" fill="#121D30"/>
<path d="M270.582 317.265C270.582 317.265 267.144 294.705 267.165 283.105H288.871L291.47 317.574L270.582 317.265Z" fill="#121D30"/>
<path d="M263.942 228.39L261.738 239.695L277.185 242.631L277.479 217.422L270.251 220.544C266.978 221.958 264.617 224.894 263.942 228.39Z" fill="#0099CC"/>
<path d="M260.311 235.895L270.094 237.897L277.279 238.823L274.997 244.537L259.528 240.912L260.311 235.895Z" fill="white"/>
<path d="M300.859 227.676C308.216 238.565 307.836 243.776 298.799 247.767L300.859 227.676Z" fill="#0099CC"/>
<path d="M306.005 236.756L301.949 229.348L303.815 225.293" stroke="#121D30" stroke-width="0.75" stroke-miterlimit="10"/>
<path d="M247.984 251C243.656 248.782 238.624 248.926 238.624 248.926L240.131 240.09C248.63 241.08 251.307 244.72 252.506 247.045L247.984 251Z" fill="#D28A7B"/>
<path d="M238.632 248.925C238.632 248.925 234.469 247.216 232.603 243.864L234.541 238.868C234.541 238.868 237.297 241.675 239.795 242.055C239.795 242.055 236.486 239.457 235.861 237.167L237.397 236.672C237.397 236.672 239.845 239.722 243.534 241.022L238.632 248.925Z" fill="#D28A7B"/>
<path d="M233.127 242.609C233.127 242.609 235.883 245.402 238.338 246.765" stroke="#121D30" stroke-width="0.75" stroke-miterlimit="10"/>
<path d="M233.858 240.645C233.858 240.645 236.17 243.336 239.314 244.686" stroke="#121D30" stroke-width="0.75" stroke-miterlimit="10"/>
<path d="M270.237 252.513L249.249 245.328L246.062 249.032C249.636 253.131 253.634 256.741 258.085 259.433C263.411 262.641 270.208 258.729 270.237 252.513Z" fill="#D28A7B"/>
<path d="M299.616 358.424L292.065 280.773H288.261" stroke="white" stroke-width="0.75" stroke-miterlimit="10"/>
<path d="M278.197 259.238C278.197 259.238 269.01 272.072 270.905 286.127C272.799 300.181 274.493 317.264 274.493 317.264L265.98 358.423" stroke="white" stroke-width="0.75" stroke-miterlimit="10"/>
<path d="M267.531 251.163L260.913 249.246" stroke="#121D30" stroke-width="0.75" stroke-miterlimit="10"/>
<path d="M325.622 242.967C329.34 239.83 334.271 238.846 334.271 238.846L330.818 230.57C322.758 233.449 320.97 237.59 320.324 240.124L325.622 242.967Z" fill="#D28A7B"/>
<path d="M334.272 238.846C334.272 238.846 337.939 236.248 339.009 232.566L335.994 228.13C335.994 228.13 333.941 231.482 331.587 232.415C331.587 232.415 334.228 229.135 334.322 226.773L332.714 226.637C332.714 226.637 331.013 230.161 327.711 232.25L334.272 238.846Z" fill="#D28A7B"/>
<path d="M338.219 231.457C338.219 231.457 336.159 234.795 334.07 236.675" stroke="#121D30" stroke-width="0.75" stroke-miterlimit="10"/>
<path d="M337.063 229.703C337.063 229.703 335.419 232.847 332.655 234.871" stroke="#121D30" stroke-width="0.75" stroke-miterlimit="10"/>
<path d="M304.283 249.429L323.118 237.715L327.052 240.608C324.489 245.402 321.403 249.817 317.67 253.442C313.205 257.77 305.704 255.48 304.283 249.429Z" fill="#D28A7B"/>
<path d="M306.607 247.516L312.63 244.156" stroke="#121D30" stroke-width="0.75" stroke-miterlimit="10"/>
<path d="M266.131 365.379L277.788 364.934" stroke="#121D30" stroke-width="0.75" stroke-miterlimit="10"/>
<path d="M302.531 365.157L314.404 364.188" stroke="#121D30" stroke-width="0.75" stroke-miterlimit="10"/>
<path d="M210.646 386.797H521.385" stroke="#121D30" stroke-miterlimit="10"/>
<path d="M402.21 209.676C414.822 212.425 427.433 215.182 440.038 217.931C434.274 200.754 455.75 189.521 449.986 172.337C437.375 169.587 424.763 166.831 412.159 164.082C417.923 181.266 396.446 192.499 402.21 209.676Z" fill="white"/>
<path d="M445.45 194.359C449.226 187.511 452.771 180.613 449.994 172.344C437.382 169.595 424.77 166.839 412.166 164.09" stroke="#121D30" stroke-width="0.75" stroke-miterlimit="10"/>
<path d="M402.21 209.673C414.822 212.422 427.433 215.178 440.038 217.928C438.2 212.451 439.133 207.584 441.064 202.926" stroke="#121D30" stroke-width="0.75" stroke-miterlimit="10"/>
<path d="M376.249 263.824C387.36 257.256 398.472 250.696 409.59 244.128C393.677 235.464 401.773 212.617 385.86 203.953C374.749 210.521 363.637 217.082 352.519 223.649C368.425 232.313 360.335 255.16 376.249 263.824Z" fill="white"/>
<path d="M376.248 263.825C387.359 257.257 398.471 250.697 409.589 244.129C402.376 240.195 400.093 233.355 398.277 226.234" stroke="#121D30" stroke-width="0.75" stroke-miterlimit="10"/>
<path d="M372.143 212.059C365.604 215.92 359.058 219.789 352.519 223.651C360.881 228.202 362.611 236.672 364.685 244.941" stroke="#121D30" stroke-width="0.75" stroke-miterlimit="10"/>
<path d="M444.289 282.324C433.177 275.756 422.066 269.196 410.947 262.628C426.861 253.964 418.764 231.117 434.677 222.453C445.789 229.021 456.9 235.582 468.019 242.149C452.105 250.806 460.202 273.653 444.289 282.324Z" fill="white"/>
<path d="M456.843 259.484C454.567 268.227 453.167 277.479 444.281 282.317C436.902 277.96 429.523 273.596 422.145 269.239" stroke="#121D30" stroke-width="0.75" stroke-miterlimit="10"/>
<path d="M423.795 238.71C425.568 232.193 428.016 226.077 434.684 222.445C440.656 225.97 446.621 229.494 452.593 233.026" stroke="#121D30" stroke-width="0.75" stroke-miterlimit="10"/>
<path d="M310.413 421.145H308.361L302.187 411.803V421.145H300.135V408.617H302.187L308.361 417.941V408.617H310.413V421.145ZM317.509 421.307C316.573 421.307 315.727 421.097 314.971 420.677C314.215 420.245 313.621 419.645 313.189 418.877C312.757 418.097 312.541 417.197 312.541 416.177C312.541 415.169 312.763 414.275 313.207 413.495C313.651 412.715 314.257 412.115 315.025 411.695C315.793 411.275 316.651 411.065 317.599 411.065C318.547 411.065 319.405 411.275 320.173 411.695C320.941 412.115 321.547 412.715 321.991 413.495C322.435 414.275 322.657 415.169 322.657 416.177C322.657 417.185 322.429 418.079 321.973 418.859C321.517 419.639 320.893 420.245 320.101 420.677C319.321 421.097 318.457 421.307 317.509 421.307ZM317.509 419.525C318.037 419.525 318.529 419.399 318.985 419.147C319.453 418.895 319.831 418.517 320.119 418.013C320.407 417.509 320.551 416.897 320.551 416.177C320.551 415.457 320.413 414.851 320.137 414.359C319.861 413.855 319.495 413.477 319.039 413.225C318.583 412.973 318.091 412.847 317.563 412.847C317.035 412.847 316.543 412.973 316.087 413.225C315.643 413.477 315.289 413.855 315.025 414.359C314.761 414.851 314.629 415.457 314.629 416.177C314.629 417.245 314.899 418.073 315.439 418.661C315.991 419.237 316.681 419.525 317.509 419.525ZM328.878 416.141C328.878 415.145 329.082 414.263 329.49 413.495C329.91 412.727 330.474 412.133 331.182 411.713C331.902 411.281 332.7 411.065 333.576 411.065C334.224 411.065 334.86 411.209 335.484 411.497C336.12 411.773 336.624 412.145 336.996 412.613V407.825H339.066V421.145H336.996V419.651C336.66 420.131 336.192 420.527 335.592 420.839C335.004 421.151 334.326 421.307 333.558 421.307C332.694 421.307 331.902 421.091 331.182 420.659C330.474 420.215 329.91 419.603 329.49 418.823C329.082 418.031 328.878 417.137 328.878 416.141ZM336.996 416.177C336.996 415.493 336.852 414.899 336.564 414.395C336.288 413.891 335.922 413.507 335.466 413.243C335.01 412.979 334.518 412.847 333.99 412.847C333.462 412.847 332.97 412.979 332.514 413.243C332.058 413.495 331.686 413.873 331.398 414.377C331.122 414.869 330.984 415.457 330.984 416.141C330.984 416.825 331.122 417.425 331.398 417.941C331.686 418.457 332.058 418.853 332.514 419.129C332.982 419.393 333.474 419.525 333.99 419.525C334.518 419.525 335.01 419.393 335.466 419.129C335.922 418.865 336.288 418.481 336.564 417.977C336.852 417.461 336.996 416.861 336.996 416.177ZM341.177 416.141C341.177 415.145 341.381 414.263 341.789 413.495C342.209 412.727 342.773 412.133 343.481 411.713C344.201 411.281 344.993 411.065 345.857 411.065C346.637 411.065 347.315 411.221 347.891 411.533C348.479 411.833 348.947 412.211 349.295 412.667V411.227H351.365V421.145H349.295V419.669C348.947 420.137 348.473 420.527 347.873 420.839C347.273 421.151 346.589 421.307 345.821 421.307C344.969 421.307 344.189 421.091 343.481 420.659C342.773 420.215 342.209 419.603 341.789 418.823C341.381 418.031 341.177 417.137 341.177 416.141ZM349.295 416.177C349.295 415.493 349.151 414.899 348.863 414.395C348.587 413.891 348.221 413.507 347.765 413.243C347.309 412.979 346.817 412.847 346.289 412.847C345.761 412.847 345.269 412.979 344.813 413.243C344.357 413.495 343.985 413.873 343.697 414.377C343.421 414.869 343.283 415.457 343.283 416.141C343.283 416.825 343.421 417.425 343.697 417.941C343.985 418.457 344.357 418.853 344.813 419.129C345.281 419.393 345.773 419.525 346.289 419.525C346.817 419.525 347.309 419.393 347.765 419.129C348.221 418.865 348.587 418.481 348.863 417.977C349.151 417.461 349.295 416.861 349.295 416.177ZM356.554 412.901V418.391C356.554 418.763 356.638 419.033 356.806 419.201C356.986 419.357 357.286 419.435 357.706 419.435H358.966V421.145H357.346C356.422 421.145 355.714 420.929 355.222 420.497C354.73 420.065 354.484 419.363 354.484 418.391V412.901H353.314V411.227H354.484V408.761H356.554V411.227H358.966V412.901H356.554ZM360.273 416.141C360.273 415.145 360.477 414.263 360.885 413.495C361.305 412.727 361.869 412.133 362.577 411.713C363.297 411.281 364.089 411.065 364.953 411.065C365.733 411.065 366.411 411.221 366.987 411.533C367.575 411.833 368.043 412.211 368.391 412.667V411.227H370.461V421.145H368.391V419.669C368.043 420.137 367.569 420.527 366.969 420.839C366.369 421.151 365.685 421.307 364.917 421.307C364.065 421.307 363.285 421.091 362.577 420.659C361.869 420.215 361.305 419.603 360.885 418.823C360.477 418.031 360.273 417.137 360.273 416.141ZM368.391 416.177C368.391 415.493 368.247 414.899 367.959 414.395C367.683 413.891 367.317 413.507 366.861 413.243C366.405 412.979 365.913 412.847 365.385 412.847C364.857 412.847 364.365 412.979 363.909 413.243C363.453 413.495 363.081 413.873 362.793 414.377C362.517 414.869 362.379 415.457 362.379 416.141C362.379 416.825 362.517 417.425 362.793 417.941C363.081 418.457 363.453 418.853 363.909 419.129C364.377 419.393 364.869 419.525 365.385 419.525C365.913 419.525 366.405 419.393 366.861 419.129C367.317 418.865 367.683 418.481 367.959 417.977C368.247 417.461 368.391 416.861 368.391 416.177ZM382.19 412.901H380.354V421.145H378.284V412.901H377.114V411.227H378.284V410.525C378.284 409.385 378.584 408.557 379.184 408.041C379.796 407.513 380.75 407.249 382.046 407.249V408.959C381.422 408.959 380.984 409.079 380.732 409.319C380.48 409.547 380.354 409.949 380.354 410.525V411.227H382.19V412.901ZM388.411 421.307C387.475 421.307 386.629 421.097 385.873 420.677C385.117 420.245 384.523 419.645 384.091 418.877C383.659 418.097 383.443 417.197 383.443 416.177C383.443 415.169 383.665 414.275 384.109 413.495C384.553 412.715 385.159 412.115 385.927 411.695C386.695 411.275 387.553 411.065 388.501 411.065C389.449 411.065 390.307 411.275 391.075 411.695C391.843 412.115 392.449 412.715 392.893 413.495C393.337 414.275 393.559 415.169 393.559 416.177C393.559 417.185 393.331 418.079 392.875 418.859C392.419 419.639 391.795 420.245 391.003 420.677C390.223 421.097 389.359 421.307 388.411 421.307ZM388.411 419.525C388.939 419.525 389.431 419.399 389.887 419.147C390.355 418.895 390.733 418.517 391.021 418.013C391.309 417.509 391.453 416.897 391.453 416.177C391.453 415.457 391.315 414.851 391.039 414.359C390.763 413.855 390.397 413.477 389.941 413.225C389.485 412.973 388.993 412.847 388.465 412.847C387.937 412.847 387.445 412.973 386.989 413.225C386.545 413.477 386.191 413.855 385.927 414.359C385.663 414.851 385.531 415.457 385.531 416.177C385.531 417.245 385.801 418.073 386.341 418.661C386.893 419.237 387.583 419.525 388.411 419.525ZM404.669 411.227V421.145H402.617V419.975C402.293 420.383 401.867 420.707 401.339 420.947C400.823 421.175 400.271 421.289 399.683 421.289C398.903 421.289 398.201 421.127 397.577 420.803C396.965 420.479 396.479 419.999 396.119 419.363C395.771 418.727 395.597 417.959 395.597 417.059V411.227H397.631V416.753C397.631 417.641 397.853 418.325 398.297 418.805C398.741 419.273 399.347 419.507 400.115 419.507C400.883 419.507 401.489 419.273 401.933 418.805C402.389 418.325 402.617 417.641 402.617 416.753V411.227H404.669ZM412.481 411.065C413.261 411.065 413.957 411.227 414.569 411.551C415.193 411.875 415.679 412.355 416.027 412.991C416.375 413.627 416.549 414.395 416.549 415.295V421.145H414.515V415.601C414.515 414.713 414.293 414.035 413.849 413.567C413.405 413.087 412.799 412.847 412.031 412.847C411.263 412.847 410.651 413.087 410.195 413.567C409.751 414.035 409.529 414.713 409.529 415.601V421.145H407.477V411.227H409.529V412.361C409.865 411.953 410.291 411.635 410.807 411.407C411.335 411.179 411.893 411.065 412.481 411.065ZM418.582 416.141C418.582 415.145 418.786 414.263 419.194 413.495C419.614 412.727 420.178 412.133 420.886 411.713C421.606 411.281 422.404 411.065 423.28 411.065C423.928 411.065 424.564 411.209 425.188 411.497C425.824 411.773 426.328 412.145 426.7 412.613V407.825H428.77V421.145H426.7V419.651C426.364 420.131 425.896 420.527 425.296 420.839C424.708 421.151 424.03 421.307 423.262 421.307C422.398 421.307 421.606 421.091 420.886 420.659C420.178 420.215 419.614 419.603 419.194 418.823C418.786 418.031 418.582 417.137 418.582 416.141ZM426.7 416.177C426.7 415.493 426.556 414.899 426.268 414.395C425.992 413.891 425.626 413.507 425.17 413.243C424.714 412.979 424.222 412.847 423.694 412.847C423.166 412.847 422.674 412.979 422.218 413.243C421.762 413.495 421.39 413.873 421.102 414.377C420.826 414.869 420.688 415.457 420.688 416.141C420.688 416.825 420.826 417.425 421.102 417.941C421.39 418.457 421.762 418.853 422.218 419.129C422.686 419.393 423.178 419.525 423.694 419.525C424.222 419.525 424.714 419.393 425.17 419.129C425.626 418.865 425.992 418.481 426.268 417.977C426.556 417.461 426.7 416.861 426.7 416.177Z" fill="#192A3E"/>
</svg>
