<svg width="1440" height="850" viewBox="0 0 1440 850" fill="none" xmlns="http://www.w3.org/2000/svg">
<path d="M0 375L1440 59.5V375L0 698V375Z" fill="#66C5FF" fill-opacity="0.05"/>
<path d="M0 717L58.5 703V741L0 755V717Z" fill="#003060"/>
<path d="M1440 104L1381.5 118V80.0002L1440 66.0002V104Z" fill="#003060"/>
<path d="M0 753.719L300 688V753.719L0 821V753.719Z" fill="#3399FF"/>
<path d="M1440 67.2811L1140 133V67.2811L1440 0V67.2811Z" fill="#3399FF"/>
<path d="M408 757L556 708V793L408 840.5V757Z" fill="#DFDFDF" fill-opacity="0.5"/>
<path d="M1023 53.5L875 102.5V17.5L1023 -30V53.5Z" fill="#DFDFDF" fill-opacity="0.5"/>
<path d="M408.053 151.525L408.25 151.482V151.281V84V83.6877L407.945 83.7561L107.945 151.037L107.75 151.081V151.281V217V217.311L108.053 217.244L408.053 151.525Z" stroke="#B7B7B7" stroke-opacity="0.5" stroke-width="0.5"/>
<path d="M1126.95 706.475L1126.75 706.518V706.719V774V774.312L1127.05 774.244L1427.05 706.963L1427.25 706.919V706.719V641V640.689L1426.95 640.756L1126.95 706.475Z" stroke="#B7B7B7" stroke-opacity="0.5" stroke-width="0.5"/>
<path d="M1303.29 480.933L1301.64 481.883C1301.77 481.273 1301.87 480.673 1301.87 480.093C1301.87 476.743 1299.52 475.393 1296.62 477.063C1295.78 477.553 1294.99 478.253 1294.29 479.063C1294.29 479.053 1294.29 479.043 1294.29 479.043C1294.29 474.543 1291.13 472.713 1287.23 474.963C1283.33 477.213 1280.17 482.693 1280.17 487.193C1280.17 487.423 1280.18 487.643 1280.2 487.853C1279.37 487.703 1278.39 487.913 1277.33 488.523C1274.43 490.193 1272.08 494.263 1272.08 497.613C1272.08 498.073 1272.13 498.493 1272.21 498.873L1271.33 499.383C1268.94 500.763 1267 503.463 1267 505.403C1267 507.343 1268.94 507.803 1271.33 506.423L1303.29 487.973C1305.68 486.593 1307.62 483.893 1307.62 481.953C1307.62 480.003 1305.68 479.543 1303.29 480.933Z" fill="#EBEBEB"/>
<path d="M1088.68 832.12C1157.59 864.96 1269.31 864.96 1338.21 832.12C1407.12 799.28 1407.12 746.03 1338.21 713.19C1269.3 680.35 1157.58 680.35 1088.68 713.19C1019.78 746.03 1019.78 799.28 1088.68 832.12Z" fill="#F5F5F5"/>
<path d="M1337.97 807.85C1350.67 807.85 1360.95 802.948 1360.95 796.9C1360.95 790.853 1350.67 785.95 1337.97 785.95C1325.28 785.95 1314.99 790.853 1314.99 796.9C1314.99 802.948 1325.28 807.85 1337.97 807.85Z" fill="#EBEBEB"/>
<path d="M1083.39 798.47L1091.51 793.78C1091.51 793.78 1098.21 788.85 1101.53 779.71C1104.04 772.79 1103.7 767.53 1101.89 764.89C1099.67 761.64 1093.94 762.21 1093.72 769.06C1093.28 782.53 1089.35 791.86 1083.39 798.47Z" fill="#3399FF"/>
<path opacity="0.2" d="M1083.39 798.47L1091.51 793.78C1091.51 793.78 1098.21 788.85 1101.53 779.71C1104.04 772.79 1103.7 767.53 1101.89 764.89C1099.67 761.64 1093.94 762.21 1093.72 769.06C1093.28 782.53 1089.35 791.86 1083.39 798.47Z" fill="black"/>
<path d="M1083.39 798.97C1083.23 798.97 1083.08 798.89 1082.98 798.75C1082.82 798.52 1082.88 798.21 1083.11 798.05C1101.91 785.04 1098.27 766.92 1098.23 766.74C1098.17 766.47 1098.34 766.2 1098.61 766.15C1098.88 766.09 1099.15 766.26 1099.2 766.53C1099.24 766.72 1103.04 785.47 1083.68 798.87C1083.59 798.94 1083.49 798.97 1083.39 798.97Z" fill="white"/>
<path d="M1067.15 807.85C1067.15 807.85 1064.32 805.55 1065.01 802.43C1065.69 799.31 1067.52 797.07 1064.38 793.05C1061.24 789.03 1060.43 783.67 1064.12 780.76C1066.97 778.51 1071.42 781.7 1073.03 775.74C1074.2 771.4 1073.8 761.79 1079.34 758.59C1084.88 755.39 1088.31 760.21 1087.46 766.72C1086.7 772.55 1085.63 778.17 1086.45 779.69C1088.07 782.68 1090.84 782.28 1090.71 787.76C1090.59 792.86 1085.77 797.08 1085.77 797.08L1067.15 807.85Z" fill="#3399FF"/>
<path d="M1076.44 802.99C1076.19 802.99 1075.97 802.8 1075.94 802.55C1074.51 790.7 1077.92 770.24 1080.74 764.16C1080.86 763.91 1081.15 763.8 1081.4 763.92C1081.65 764.04 1081.76 764.33 1081.64 764.58C1078.87 770.56 1075.56 791.1 1076.93 802.43C1076.96 802.7 1076.77 802.95 1076.49 802.99C1076.48 802.99 1076.46 802.99 1076.44 802.99Z" fill="white"/>
<path d="M1076.17 793.76C1076.1 793.76 1076.02 793.74 1075.95 793.71C1072.48 792.01 1070.28 785.99 1070.19 785.73C1070.1 785.47 1070.23 785.18 1070.49 785.09C1070.75 785 1071.04 785.13 1071.13 785.39C1071.15 785.45 1073.28 791.29 1076.39 792.81C1076.64 792.93 1076.74 793.23 1076.62 793.48C1076.53 793.66 1076.35 793.76 1076.17 793.76Z" fill="white"/>
<path d="M1076.11 797.76C1075.91 797.76 1075.72 797.64 1075.65 797.45C1075.55 797.19 1075.67 796.9 1075.93 796.8C1081.77 794.46 1085.41 787.5 1085.45 787.43C1085.58 787.18 1085.88 787.09 1086.12 787.22C1086.37 787.35 1086.46 787.65 1086.34 787.89C1086.19 788.19 1082.49 795.25 1076.31 797.73C1076.24 797.75 1076.17 797.76 1076.11 797.76Z" fill="white"/>
<path d="M1280.24 743.96C1280.24 743.96 1275.87 736.89 1275.44 729.19C1275.02 721.49 1276.71 718.3 1279.03 717.38C1281.35 716.46 1281.52 719.29 1282.72 720.96C1283.92 722.63 1286.34 721.68 1287.23 716.47C1288.12 711.26 1291.41 702.44 1298.2 700.76C1305.7 698.9 1301.68 707.7 1299.79 711.13C1297.91 714.56 1296.44 719.24 1297.68 720.51C1298.92 721.78 1300.85 719.43 1302.69 721.61C1304.92 724.24 1297.99 733.7 1294.01 736L1280.24 743.96Z" fill="#3399FF"/>
<path d="M1286.23 740.99C1286.22 740.99 1286.21 740.99 1286.2 740.99C1285.92 740.98 1285.71 740.74 1285.73 740.46C1286.83 719.98 1296.82 705.8 1296.93 705.66C1297.09 705.43 1297.4 705.38 1297.63 705.54C1297.85 705.7 1297.91 706.01 1297.75 706.24C1297.65 706.38 1287.83 720.34 1286.74 740.51C1286.72 740.78 1286.5 740.99 1286.23 740.99Z" fill="white"/>
<path d="M1286.8 735.08C1286.72 735.08 1286.63 735.06 1286.56 735.02C1283.76 733.47 1282.21 728.87 1282.14 728.68C1282.05 728.42 1282.19 728.14 1282.46 728.05C1282.72 727.96 1283.01 728.11 1283.09 728.37C1283.1 728.41 1284.58 732.79 1287.04 734.15C1287.28 734.28 1287.37 734.59 1287.24 734.83C1287.15 734.99 1286.98 735.08 1286.8 735.08Z" fill="white"/>
<path d="M1287.29 732.05C1287.07 732.05 1286.86 731.9 1286.81 731.67C1286.74 731.4 1286.9 731.13 1287.17 731.06C1294.39 729.23 1296.89 725.45 1296.91 725.41C1297.06 725.18 1297.37 725.11 1297.6 725.26C1297.83 725.41 1297.9 725.72 1297.75 725.95C1297.64 726.12 1295.05 730.1 1287.41 732.03C1287.37 732.05 1287.33 732.05 1287.29 732.05Z" fill="white"/>
<path d="M1171.46 728.42C1171.46 728.42 1161.87 726.08 1161.37 708.13C1160.83 688.75 1163.72 666.14 1152.41 664.3C1141.1 662.46 1134.75 676.33 1134.9 692.44C1135.03 706.59 1140.73 737.29 1171.46 743.31V728.42Z" fill="#3399FF"/>
<path opacity="0.2" d="M1171.46 728.42C1171.46 728.42 1161.87 726.08 1161.37 708.13C1160.83 688.75 1163.72 666.14 1152.41 664.3C1141.1 662.46 1134.75 676.33 1134.9 692.44C1135.03 706.59 1140.73 737.29 1171.46 743.31V728.42Z" fill="black"/>
<path d="M1171.46 741.46C1171.43 741.46 1171.4 741.46 1171.37 741.45C1164.45 740.19 1158.83 736.39 1154.64 730.14C1142.22 711.61 1146.13 677.01 1147.42 670.97C1147.48 670.7 1147.74 670.53 1148.01 670.58C1148.28 670.64 1148.45 670.9 1148.4 671.17C1147.13 677.15 1143.25 711.33 1155.48 729.58C1159.51 735.59 1164.92 739.25 1171.56 740.46C1171.83 740.51 1172.01 740.77 1171.96 741.04C1171.91 741.29 1171.7 741.46 1171.46 741.46Z" fill="white"/>
<path d="M1171.46 787.551C1161.55 788.891 1145.44 788.871 1136.17 781.551C1126.89 774.231 1128.82 767.931 1132.39 765.301C1135.96 762.671 1139.06 759.661 1132.92 753.831C1126.78 747.991 1116.91 738.611 1113.72 724.541C1110.53 710.471 1112.1 701.671 1118.38 698.741C1124.47 695.901 1126.08 700.411 1129.81 709.741C1133.54 719.061 1141.93 711.071 1149.11 713.981C1156.29 716.891 1156 722.651 1156.46 727.601C1156.91 732.551 1159.28 733.921 1163.34 733.921C1167.4 733.921 1171.46 736.261 1171.46 740.961V787.551Z" fill="#3399FF"/>
<path d="M1171.46 771.21C1171.42 771.21 1171.37 771.2 1171.33 771.19C1170.9 771.07 1160.65 768.09 1145.72 754.38C1129.82 739.78 1122.32 717.88 1122.24 717.66C1122.15 717.4 1122.29 717.11 1122.55 717.03C1122.81 716.94 1123.1 717.08 1123.18 717.34C1123.25 717.56 1130.68 739.22 1146.39 753.64C1161.11 767.17 1171.49 770.2 1171.59 770.23C1171.86 770.31 1172.01 770.58 1171.94 770.85C1171.88 771.07 1171.68 771.21 1171.46 771.21Z" fill="white"/>
<path d="M1149.87 757.871C1149.67 757.871 1149.48 757.751 1149.4 757.551C1146.19 749.301 1145.46 731.671 1145.43 730.931C1145.42 730.651 1145.63 730.421 1145.91 730.411C1146.17 730.411 1146.42 730.611 1146.43 730.891C1146.44 731.071 1147.18 749.101 1150.33 757.191C1150.43 757.451 1150.3 757.741 1150.05 757.841C1150 757.861 1149.93 757.871 1149.87 757.871Z" fill="white"/>
<path d="M1149.79 769.731C1148.24 769.731 1147.16 769.611 1147.03 769.591C1146.76 769.561 1146.56 769.311 1146.59 769.031C1146.62 768.761 1146.87 768.551 1147.15 768.591C1147.24 768.601 1156.55 769.651 1160.82 765.291C1161.01 765.091 1161.33 765.091 1161.53 765.281C1161.73 765.471 1161.73 765.791 1161.54 765.991C1158.41 769.191 1153.05 769.731 1149.79 769.731Z" fill="white"/>
<path d="M1142.59 580.37L1141.52 574.14L1135.96 577.8C1135.4 576.73 1134.69 575.88 1133.84 575.23L1136.5 568.03L1131.54 566.92L1127.88 573.9C1126.67 574.09 1125.39 574.5 1124.07 575.14L1122.48 569.88L1116.54 574.55L1116.93 580.75C1115.73 582.09 1114.63 583.55 1113.65 585.09L1108.75 584.85L1105.31 592.56L1109.52 594.36C1109.08 596.02 1108.79 597.66 1108.69 599.25L1103.34 604.17L1104.41 610.4L1109.97 606.74C1110.53 607.81 1111.24 608.66 1112.09 609.31L1109.43 616.51L1114.39 617.62L1119.63 612.51C1120.84 612.32 1120.55 610.04 1121.87 609.4L1123.45 614.66L1129.39 609.99L1129.24 607.55C1130.44 606.21 1134.98 603.26 1135.96 601.73L1137.19 599.7L1140.63 591.99L1139.03 589.09L1137.25 585.31L1142.59 580.37ZM1124.46 600.92C1119.91 604.5 1118.52 605.28 1117.69 600.5C1116.86 595.72 1119.53 588.42 1124.08 584.84C1128.63 581.26 1130.38 580.99 1131.21 585.78C1132.04 590.57 1129.01 597.34 1124.46 600.92Z" fill="#E0E0E0"/>
<path d="M1131.54 566.92L1138.03 570.66L1134.36 577.64L1127.88 573.9L1131.54 566.92Z" fill="#F5F5F5"/>
<path d="M1148.01 577.88L1142.45 581.54L1135.96 577.8L1141.52 574.14L1148.01 577.88Z" fill="#F5F5F5"/>
<path d="M1147.12 595.71L1142.9 593.92L1136.42 590.18L1140.63 591.97L1147.12 595.71Z" fill="#E0E0E0"/>
<path d="M1109.43 616.5L1115.92 620.23L1118.58 613.03L1112.09 609.29L1109.43 616.5Z" fill="#E0E0E0"/>
<path d="M1129.93 618.38L1123.45 614.64L1121.86 609.38L1128.35 613.12L1129.93 618.38Z" fill="#E0E0E0"/>
<path d="M1149.07 584.11L1148 577.88L1142.44 581.54C1141.88 580.47 1141.17 579.62 1140.32 578.97L1142.98 571.77L1138.02 570.66L1134.36 577.64C1133.15 577.83 1131.87 578.24 1130.55 578.88L1128.97 573.62L1123.03 578.29L1123.42 584.49C1122.22 585.83 1121.12 587.29 1120.14 588.83L1115.24 588.59L1111.8 596.3L1116.01 598.1C1115.57 599.76 1115.28 601.4 1115.18 602.99L1109.83 607.91L1110.9 614.14L1116.46 610.48C1117.02 611.55 1117.73 612.4 1118.58 613.05L1115.92 620.25L1120.88 621.36L1124.54 614.38C1125.75 614.19 1127.03 613.78 1128.35 613.14L1129.94 618.4L1135.88 613.73L1135.49 607.53C1136.69 606.19 1137.79 604.73 1138.77 603.19L1143.67 603.43L1147.11 595.72L1142.9 593.92C1143.35 592.26 1143.63 590.62 1143.73 589.03L1149.07 584.11ZM1130.94 604.66C1126.39 608.24 1122.03 607.27 1121.2 602.48C1120.37 597.69 1123.4 590.92 1127.95 587.34C1132.5 583.76 1136.86 584.73 1137.69 589.52C1138.52 594.3 1135.5 601.08 1130.94 604.66Z" fill="#EBEBEB"/>
<path d="M1128.97 573.62L1122.48 569.88L1116.54 574.55L1123.03 578.29L1128.97 573.62Z" fill="#F5F5F5"/>
<path d="M1116.54 574.55L1116.93 580.75L1123.42 584.49L1123.03 578.29L1116.54 574.55Z" fill="#E0E0E0"/>
<path d="M1120.14 588.83L1113.65 585.09L1108.75 584.84L1115.23 588.58L1120.14 588.83Z" fill="#F5F5F5"/>
<path d="M1108.75 584.84L1105.31 592.55L1111.79 596.29L1115.23 588.58L1108.75 584.84Z" fill="#E0E0E0"/>
<path d="M1115.17 602.979L1108.69 599.229L1103.34 604.149L1109.83 607.889L1115.17 602.979Z" fill="#F5F5F5"/>
<path d="M1110.9 614.13L1104.41 610.39L1103.34 604.15L1109.83 607.89L1110.9 614.13Z" fill="#E0E0E0"/>
<path d="M1138.03 570.66L1131.54 566.92L1136.5 568.03L1142.98 571.77L1138.03 570.66Z" fill="#F5F5F5"/>
<path d="M1113.53 552.09V542.78L1106.12 546.12C1105.67 544.4 1104.99 542.93 1104.12 541.71L1108.79 532.3L1103.09 529.01L1097.27 537.76C1095.78 537.61 1094.16 537.76 1092.45 538.23L1091.64 530.14L1083.58 534.8L1082.77 543.83C1081.06 545.33 1079.44 547.05 1077.95 548.92L1072.13 546.89L1066.43 556.77L1071.1 560.79C1070.23 563.02 1069.54 565.28 1069.1 567.51L1061.69 572.73V582.04L1069.1 578.7C1069.55 580.42 1070.23 581.89 1071.1 583.11L1066.43 592.53L1072.13 595.82L1077.95 587.07C1079.44 587.22 1081.06 587.07 1082.77 586.6L1083.58 594.69L1091.64 590.03L1092.45 581C1094.85 580.2 1097.42 578.34 1098.92 576.47L1103.09 577.94L1108.79 568.06L1105.29 565.04C1106.16 562.81 1106.26 559.26 1106.12 557.31L1113.53 552.09ZM1087.6 575.35C1081.41 578.92 1077.57 576.39 1077.57 569.24C1077.57 562.1 1082.68 553.34 1088.87 549.77C1095.06 546.2 1098.81 548.8 1098.81 555.94C1098.8 563.09 1093.79 571.77 1087.6 575.35Z" fill="#E0E0E0"/>
<path d="M1109.57 532.74L1103.09 529L1097.27 537.76L1103.75 541.5L1109.57 532.74Z" fill="#F5F5F5"/>
<path d="M1120.03 546.52L1113.54 542.78L1106.12 546.12L1112.62 549.86L1120.03 546.52Z" fill="#F5F5F5"/>
<path d="M1090.06 598.42L1083.57 594.68L1082.76 586.59L1089.24 590.33L1090.06 598.42Z" fill="#E0E0E0"/>
<path d="M1066.42 592.52L1072.9 596.26L1077.57 586.85L1071.08 583.11L1066.42 592.52Z" fill="#E0E0E0"/>
<path d="M1120.02 555.83V546.52L1112.61 549.86C1112.16 548.14 1111.48 546.67 1110.61 545.45L1115.28 536.03L1109.58 532.74L1103.76 541.49C1102.27 541.34 1100.65 541.49 1098.94 541.96L1098.12 533.88L1090.06 538.54L1089.25 547.57C1087.54 549.07 1085.92 550.79 1084.43 552.66L1078.61 550.63L1072.91 560.51L1077.58 564.53C1076.71 566.76 1076.03 569.02 1075.58 571.25L1068.17 576.47V585.78L1075.58 582.44C1076.03 584.16 1076.71 585.63 1077.58 586.85L1072.91 596.27L1078.61 599.56L1084.43 590.81C1085.92 590.96 1087.54 590.81 1089.25 590.34L1090.06 598.43L1098.12 593.77L1098.93 584.74C1100.64 583.24 1102.26 581.52 1103.75 579.65L1109.57 581.68L1115.27 571.8L1110.6 567.78C1111.47 565.55 1112.16 563.29 1112.6 561.06L1120.02 555.83ZM1094.09 579.09C1087.9 582.66 1082.89 579.77 1082.89 572.62C1082.89 565.48 1087.91 556.79 1094.09 553.22C1100.28 549.65 1105.29 552.54 1105.29 559.69C1105.29 566.83 1100.27 575.51 1094.09 579.09Z" fill="#EBEBEB"/>
<path d="M1077.94 548.92L1084.43 552.66L1078.61 550.62L1072.12 546.88L1077.94 548.92Z" fill="#F0F0F0"/>
<path d="M1072.12 546.878L1066.42 556.762L1072.9 560.504L1078.61 550.62L1072.12 546.878Z" fill="#F5F5F5"/>
<path d="M1066.42 556.76L1072.9 560.5L1077.57 564.53L1071.08 560.79L1066.42 556.76Z" fill="#E0E0E0"/>
<path d="M1069.08 567.51L1075.57 571.25L1068.16 576.46L1061.67 572.72L1069.08 567.51Z" fill="#F5F5F5"/>
<path d="M1061.67 572.72L1068.16 576.46V585.78L1061.67 582.04V572.72Z" fill="#E0E0E0"/>
<path d="M1098.13 533.88L1091.64 530.14L1083.58 534.8L1090.07 538.54L1098.13 533.88Z" fill="#F5F5F5"/>
<path d="M1181.33 800.93L1275.35 746.64C1276.31 746.09 1276.31 745.19 1275.35 744.64L1266.65 739.61C1265.69 739.06 1264.14 739.06 1263.19 739.61L1169.14 793.9C1168.18 794.45 1168.18 795.35 1169.14 795.9L1177.86 800.94C1178.82 801.48 1180.37 801.48 1181.33 800.93Z" fill="#E0E0E0"/>
<path d="M1272.75 537.08L1187.98 586.02C1185.59 587.4 1183.65 590.76 1183.65 593.52V794.59C1183.65 797.35 1185.59 798.47 1187.98 797.09L1272.75 748.15C1275.14 746.77 1277.08 743.41 1277.08 740.65V539.58C1277.08 536.82 1275.15 535.7 1272.75 537.08Z" fill="#455A64"/>
<path d="M1187.98 586.02L1272.74 537.08C1274.88 535.85 1276.65 536.61 1277 538.76C1276.67 536.18 1274.9 533.32 1272.74 532.08L1269.21 530.04C1266.82 528.66 1262.94 528.66 1260.55 530.04L1175.78 578.98C1174.58 579.67 1173.5 580.86 1172.72 582.21L1184.91 589.25C1185.7 587.89 1186.78 586.71 1187.98 586.02Z" fill="#37474F"/>
<path d="M1171.47 787.55C1171.47 790.31 1173.41 793.67 1175.8 795.05L1179.33 797.09C1181.49 798.34 1184.86 798.45 1187.25 797.44C1185.21 798.21 1183.65 797.06 1183.65 794.59V593.52C1183.65 592.14 1184.13 590.61 1184.92 589.25L1172.73 582.21C1171.95 583.57 1171.46 585.1 1171.46 586.48L1171.47 787.55Z" fill="#263238"/>
<path d="M1190.31 612.81L1270.42 566.56C1271.86 565.73 1273.02 566.4 1273.02 568.06V716.84C1273.02 718.5 1271.86 720.51 1270.42 721.34L1190.31 767.59C1188.88 768.42 1187.71 767.75 1187.71 766.09V617.3C1187.71 615.66 1188.87 613.64 1190.31 612.81Z" fill="white"/>
<path d="M1230.36 569.17C1229.52 569.66 1228.84 570.84 1228.84 571.81C1228.84 572.78 1229.52 573.18 1230.36 572.69C1231.2 572.2 1231.88 571.02 1231.88 570.05C1231.88 569.08 1231.2 568.69 1230.36 569.17Z" fill="#37474F"/>
<path d="M1230.37 751.62C1227.05 753.54 1224.36 758.2 1224.36 762.04C1224.36 765.87 1227.05 767.43 1230.37 765.51C1233.69 763.59 1236.38 758.93 1236.38 755.09C1236.39 751.26 1233.69 749.7 1230.37 751.62Z" fill="#37474F"/>
<path d="M1215.97 584.65C1214.29 585.62 1212.92 587.98 1212.92 589.93C1212.92 591.87 1214.28 592.66 1215.97 591.69C1217.65 590.72 1219.02 588.36 1219.02 586.41C1219.02 584.47 1217.66 583.68 1215.97 584.65Z" fill="#37474F"/>
<path d="M1223.42 583.99C1223.42 585.28 1224.39 585.78 1225.59 585.09L1245.63 573.52C1246.83 572.83 1247.8 571.22 1247.8 569.92C1247.8 568.62 1246.83 568.13 1245.63 568.82L1225.59 580.39C1224.39 581.09 1223.42 582.7 1223.42 583.99Z" fill="#37474F"/>
<path d="M1178.2 619.25C1179.55 620.03 1180.64 621.92 1180.64 623.47C1180.64 625.02 1179.55 625.65 1178.2 624.88C1176.85 624.1 1175.76 622.21 1175.76 620.66C1175.76 619.11 1176.86 618.48 1178.2 619.25Z" fill="#37474F"/>
<path d="M1178.2 638.03C1179.55 638.81 1180.64 640.7 1180.64 642.25C1180.64 643.8 1179.55 644.43 1178.2 643.66C1176.85 642.88 1175.76 640.99 1175.76 639.44C1175.77 637.88 1176.86 637.25 1178.2 638.03Z" fill="#37474F"/>
<path d="M1177.45 619.629C1178.8 620.409 1179.89 622.299 1179.89 623.849C1179.89 625.399 1178.8 626.029 1177.45 625.259C1176.1 624.479 1175.01 622.589 1175.01 621.039C1175.01 619.479 1176.1 618.849 1177.45 619.629Z" fill="#455A64"/>
<path d="M1177.45 638.4C1178.8 639.18 1179.89 641.07 1179.89 642.62C1179.89 644.17 1178.8 644.8 1177.45 644.03C1176.1 643.25 1175.01 641.36 1175.01 639.81C1175.01 638.26 1176.1 637.63 1177.45 638.4Z" fill="#455A64"/>
<path d="M1289.27 572.769C1289.27 571.109 1288.11 570.439 1286.67 571.269L1277.08 576.809L1206.56 617.519C1205.12 618.349 1203.96 620.359 1203.96 622.019V770.799C1203.96 772.459 1205.12 773.129 1206.56 772.299L1277.1 731.569L1286.66 726.049C1288.09 725.219 1289.26 723.209 1289.26 721.549L1289.27 572.769Z" fill="white" stroke="#3399FF" stroke-miterlimit="10"/>
<path d="M1205.4 773.16C1205.07 773.16 1204.75 773.08 1204.47 772.92C1203.82 772.54 1203.46 771.79 1203.46 770.8V622.02C1203.46 620.18 1204.71 618.01 1206.31 617.09L1276.83 576.38L1277.33 577.25L1206.81 617.96C1205.54 618.69 1204.46 620.56 1204.46 622.03V770.81C1204.46 771.42 1204.65 771.87 1204.97 772.06C1205.3 772.25 1205.78 772.18 1206.31 771.88L1276.85 731.15L1277.35 732.02L1206.81 772.75C1206.32 773.02 1205.84 773.16 1205.4 773.16Z" fill="#3399FF" stroke="#3399FF" stroke-miterlimit="10"/>
<path d="M1277.36 732.009L1276.86 731.139L1286.42 725.619C1287.69 724.879 1288.77 723.019 1288.77 721.549V572.759C1288.77 572.149 1288.58 571.699 1288.26 571.509C1287.94 571.319 1287.45 571.389 1286.92 571.689L1277.33 577.229L1276.83 576.359L1286.42 570.819C1287.27 570.329 1288.1 570.259 1288.76 570.639C1289.41 571.019 1289.77 571.769 1289.77 572.749V721.539C1289.77 723.379 1288.52 725.549 1286.92 726.469L1277.36 732.009Z" fill="#3399FF" stroke="#3399FF" stroke-miterlimit="10"/>
<path d="M1246.62 607.34C1255.59 602.16 1262.87 606.36 1262.87 616.72C1262.87 627.08 1255.6 639.68 1246.62 644.86C1237.65 650.04 1230.37 645.84 1230.37 635.48C1230.37 625.13 1237.65 612.53 1246.62 607.34Z" fill="#3399FF"/>
<path d="M1246.62 615.499C1249.53 613.819 1251.89 615.179 1251.89 618.539C1251.89 621.899 1249.53 625.989 1246.62 627.669C1243.71 629.349 1241.35 627.989 1241.35 624.629C1241.35 621.269 1243.71 617.179 1246.62 615.499Z" fill="#3399FF"/>
<path d="M1256.89 633.42C1256.89 627.9 1253.01 625.66 1248.23 628.42L1245.24 630.15C1240.46 632.91 1236.58 639.63 1236.58 645.15V646.64C1239.34 647.56 1242.83 647.06 1246.62 644.87C1250.52 642.62 1254.09 638.97 1256.89 634.71V633.42Z" fill="#3399FF"/>
<path opacity="0.7" d="M1246.61 615.5C1249.52 613.82 1251.88 615.18 1251.88 618.54C1251.88 621.9 1249.52 625.99 1246.61 627.67C1243.7 629.35 1241.34 627.99 1241.34 624.63C1241.34 621.27 1243.7 617.18 1246.61 615.5Z" fill="white"/>
<path opacity="0.7" d="M1256.89 633.42C1256.89 627.9 1253.01 625.66 1248.23 628.42L1245.24 630.15C1240.46 632.91 1236.58 639.63 1236.58 645.15V646.64C1239.34 647.56 1242.83 647.06 1246.62 644.87C1250.52 642.62 1254.09 638.97 1256.89 634.71V633.42Z" fill="white"/>
<path d="M1215.18 667.72L1236.09 655.65C1237.05 655.1 1237.82 655.55 1237.82 656.65V657.34C1237.82 658.45 1237.04 659.79 1236.09 660.34L1215.18 672.41C1214.22 672.96 1213.45 672.51 1213.45 671.41V670.72C1213.45 669.61 1214.23 668.27 1215.18 667.72Z" fill="#3399FF"/>
<path opacity="0.1" d="M1215.18 667.72L1236.09 655.65C1237.05 655.1 1237.82 655.55 1237.82 656.65V657.34C1237.82 658.45 1237.04 659.79 1236.09 660.34L1215.18 672.41C1214.22 672.96 1213.45 672.51 1213.45 671.41V670.72C1213.45 669.61 1214.23 668.27 1215.18 667.72Z" fill="black"/>
<path d="M1214.32 682.29L1277.58 645.77C1278.06 645.49 1278.45 645.72 1278.45 646.27V653.65C1278.45 654.2 1278.06 654.87 1277.58 655.15L1214.32 691.67C1213.84 691.95 1213.45 691.72 1213.45 691.17V683.79C1213.45 683.24 1213.84 682.57 1214.32 682.29Z" fill="#3399FF"/>
<path opacity="0.2" d="M1214.32 682.29L1277.58 645.77C1278.06 645.49 1278.45 645.72 1278.45 646.27V653.65C1278.45 654.2 1278.06 654.87 1277.58 655.15L1214.32 691.67C1213.84 691.95 1213.45 691.72 1213.45 691.17V683.79C1213.45 683.24 1213.84 682.57 1214.32 682.29Z" fill="white"/>
<path d="M1215.18 700.55L1236.09 688.48C1237.05 687.93 1237.82 688.38 1237.82 689.48V690.17C1237.82 691.27 1237.04 692.62 1236.09 693.17L1215.18 705.24C1214.22 705.79 1213.45 705.34 1213.45 704.24V703.55C1213.45 702.45 1214.23 701.1 1215.18 700.55Z" fill="#3399FF"/>
<path opacity="0.1" d="M1215.18 700.55L1236.09 688.48C1237.05 687.93 1237.82 688.38 1237.82 689.48V690.17C1237.82 691.27 1237.04 692.62 1236.09 693.17L1215.18 705.24C1214.22 705.79 1213.45 705.34 1213.45 704.24V703.55C1213.45 702.45 1214.23 701.1 1215.18 700.55Z" fill="black"/>
<path d="M1214.32 715.12L1277.58 678.6C1278.06 678.32 1278.45 678.55 1278.45 679.1V686.48C1278.45 687.03 1278.06 687.7 1277.58 687.98L1214.32 724.5C1213.84 724.78 1213.45 724.55 1213.45 724V716.62C1213.45 716.07 1213.84 715.4 1214.32 715.12Z" fill="#3399FF"/>
<path opacity="0.2" d="M1214.32 715.12L1277.58 678.6C1278.06 678.32 1278.45 678.55 1278.45 679.1V686.48C1278.45 687.03 1278.06 687.7 1277.58 687.98L1214.32 724.5C1213.84 724.78 1213.45 724.55 1213.45 724V716.62C1213.45 716.07 1213.84 715.4 1214.32 715.12Z" fill="white"/>
<path d="M1239.55 719.31L1264.52 704.89C1265.48 704.34 1266.25 704.79 1266.25 705.89V713.62C1266.25 714.72 1265.47 716.07 1264.52 716.62L1239.55 731.04C1238.59 731.59 1237.82 731.14 1237.82 730.04V722.31C1237.82 721.21 1238.6 719.87 1239.55 719.31Z" fill="#3399FF"/>
<path opacity="0.1" d="M1239.55 719.31L1264.52 704.89C1265.48 704.34 1266.25 704.79 1266.25 705.89V713.62C1266.25 714.72 1265.47 716.07 1264.52 716.62L1239.55 731.04C1238.59 731.59 1237.82 731.14 1237.82 730.04V722.31C1237.82 721.21 1238.6 719.87 1239.55 719.31Z" fill="black"/>
<path d="M1298.75 686.73C1298.75 686.73 1286.46 669.78 1285.72 667.77C1285.15 666.25 1285.76 663.99 1285.9 662.94C1286.04 661.89 1286.24 659.55 1286.42 658.9C1286.73 657.76 1285.25 658 1284.43 659.03C1283.58 660.09 1283.31 662.15 1282.89 662.49C1282.47 662.83 1279.19 658.06 1277.47 655.85C1275.76 653.64 1274.69 652.31 1273.65 653.13C1272.9 653.72 1273.46 655.01 1274.7 656.88C1275.94 658.76 1276.49 659.63 1276.68 660.03C1276.87 660.43 1275.85 660.47 1275.3 661.31C1274.87 661.97 1275.27 663.04 1274.7 663.55C1274.13 664.06 1273.6 664.98 1274.22 666.02C1275.02 667.34 1276.61 669.22 1278.45 670.5C1280.29 671.77 1281.03 672.22 1282.11 673.95C1283.19 675.68 1292.98 693.35 1293.64 694.41C1294.3 695.47 1295.57 697.63 1297.5 697.69C1299.43 697.75 1315.23 684.15 1316.04 683.47C1318.64 681.3 1319.46 680.98 1319.91 682.94C1320.05 683.55 1320.14 684.25 1320.24 685.04C1320.55 687.52 1322.24 696.38 1322.24 696.38C1322.24 696.38 1330.23 700.25 1336.81 698.34C1343.39 696.43 1345.6 693.68 1345.6 693.68L1342.31 688.32C1343.21 686.11 1347.34 677.15 1348.64 670.88L1328.04 667.55C1327.62 667.46 1326.94 667.29 1326.08 667.06C1324.95 666.76 1322.11 665.76 1319.91 667.67C1312.83 673.86 1298.75 686.73 1298.75 686.73Z" fill="#FFA8A7"/>
<path d="M1339.59 790.67L1335.9 795.8C1335.9 795.8 1337.61 796.8 1341.26 796.94C1344.56 797.07 1345.47 795.98 1345.59 795.72C1346.15 794.52 1345.28 792.36 1345.04 790.51L1339.59 790.67Z" fill="#37474F"/>
<path d="M1336.11 793.34C1336.11 793.34 1331.64 793.05 1328.54 792.67C1325.45 792.28 1323 793.79 1323.73 795.06C1324.46 796.33 1326.16 797.39 1328.81 798.28C1331.08 799.04 1333.81 799.6 1336.18 800.31C1338.61 801.04 1340.17 801.87 1341.54 801.4C1343.08 800.87 1343.73 800.26 1343.6 799.14C1343.47 798.02 1342.36 794.42 1342.36 794.42L1336.11 793.34Z" fill="#37474F"/>
<path d="M1345.6 785.52C1345.6 785.52 1345.04 790.18 1345 791.18C1344.96 792.18 1340.45 792.5 1339.6 790.67L1339.46 784.97L1345.6 785.52Z" fill="#F28F8F"/>
<path d="M1341.06 788.38L1342.67 795.45C1342.67 795.45 1342.82 796.31 1339.14 796.86C1335.46 797.41 1329.68 794.93 1328.7 794.43C1327.72 793.93 1327.6 792.93 1331.22 793.13C1334.84 793.33 1336.12 793.34 1336.12 793.34L1334.95 790.21L1341.06 788.38Z" fill="#FFA8A7"/>
<path d="M1348.64 670.899L1351.19 670.199C1351.19 670.199 1356.52 687.069 1357.11 688.689C1357.7 690.309 1358.36 692.049 1357.22 694.059C1355.85 696.449 1348.64 706.079 1348.64 706.079L1344.06 701.599L1349.25 692.089L1344.66 682.779L1348.64 670.899Z" fill="#F28F8F"/>
<path d="M1322.41 648.97C1322.41 648.97 1320.37 645.7 1322.52 641.7C1325.05 636.99 1330.72 634.68 1337.46 635.57C1340.58 635.98 1344.25 638.54 1346.27 642.44C1348.49 646.73 1348.69 655.37 1349.24 658.64L1322.41 648.97Z" fill="#37474F"/>
<path d="M1322.27 650.819C1322.27 650.819 1320.66 653.869 1320.94 654.149C1321.22 654.429 1322.3 654.649 1322.3 654.649L1322.27 650.819Z" fill="#FFA8A7"/>
<path d="M1327.13 641.18C1325.39 642.32 1322.39 644.39 1322.26 651.25C1322.13 658.29 1323.12 660.55 1324.16 661.37C1324.86 661.92 1328.97 661.64 1330.73 661.23C1332.49 660.82 1337.56 658.31 1339.39 654.5C1341.54 650.02 1341.1 643.46 1337.91 641.55C1333.41 638.86 1328.61 640.21 1327.13 641.18Z" fill="#FFA8A7"/>
<path d="M1345.59 693.699C1348.67 698.499 1351.61 702.729 1352.23 708.119C1353.55 719.509 1349.22 732.529 1348.3 740.949C1348.3 740.949 1351.21 744.729 1351.21 749.179C1351.21 752.659 1345.59 785.509 1345.59 785.509C1345.59 785.509 1341.51 786.749 1339.44 784.969L1335.58 724.539L1337.61 717.179L1345.59 693.699Z" fill="#3399FF"/>
<path opacity="0.2" d="M1345.59 693.699C1348.67 698.499 1351.61 702.729 1352.23 708.119C1353.55 719.509 1349.22 732.529 1348.3 740.949C1348.3 740.949 1351.21 744.729 1351.21 749.179C1351.21 752.659 1345.59 785.509 1345.59 785.509C1345.59 785.509 1341.51 786.749 1339.44 784.969L1335.58 724.539L1337.61 717.179L1345.59 693.699Z" fill="black"/>
<path d="M1335.6 724.54L1337.63 717.18C1337.63 717.18 1343.26 715.82 1348.64 712.81C1348.64 712.81 1346.56 716.6 1340.58 718.67L1337.47 728.13L1337.2 749.77L1335.6 724.54Z" fill="#3399FF"/>
<path opacity="0.3" d="M1335.6 724.54L1337.63 717.18C1337.63 717.18 1343.26 715.82 1348.64 712.81C1348.64 712.81 1346.56 716.6 1340.58 718.67L1337.47 728.13L1337.2 749.77L1335.6 724.54Z" fill="black"/>
<path d="M1345.6 693.699C1347.25 696.389 1351.19 700.999 1350.36 705.419C1349.34 710.779 1346.46 714.549 1337.63 717.169L1329.35 747.149C1329.35 747.149 1333.66 751.179 1334.98 755.019C1336.3 758.859 1341.06 788.379 1341.06 788.379C1341.06 788.379 1339.59 790.779 1334.94 790.199C1334.94 790.199 1318.73 753.179 1317.58 750.789C1316.44 748.409 1315.69 746.619 1316.21 742.739C1316.73 738.859 1322.25 696.389 1322.25 696.389L1345.6 693.699Z" fill="#3399FF"/>
<path opacity="0.2" d="M1345.6 693.699C1347.25 696.389 1351.19 700.999 1350.36 705.419C1349.34 710.779 1346.46 714.549 1337.63 717.169L1329.35 747.149C1329.35 747.149 1333.66 751.179 1334.98 755.019C1336.3 758.859 1341.06 788.379 1341.06 788.379C1341.06 788.379 1339.59 790.779 1334.94 790.199C1334.94 790.199 1318.73 753.179 1317.58 750.789C1316.44 748.409 1315.69 746.619 1316.21 742.739C1316.73 738.859 1322.25 696.389 1322.25 696.389L1345.6 693.699Z" fill="black"/>
<path d="M1348.64 670.9L1328.04 667.57C1327.62 667.48 1326.94 667.31 1326.08 667.08C1326.08 667.08 1325.2 680 1319.92 682.96C1320.04 683.58 1320.15 684.27 1320.25 685.06C1320.56 687.54 1322.25 696.4 1322.25 696.4C1322.25 696.4 1330.24 700.27 1336.82 698.36C1343.4 696.45 1345.61 693.7 1345.61 693.7L1342.32 688.34C1343.2 686.13 1347.34 677.17 1348.64 670.9Z" fill="#3399FF"/>
<path opacity="0.7" d="M1348.64 670.9L1328.04 667.57C1327.62 667.48 1326.94 667.31 1326.08 667.08C1326.08 667.08 1325.2 680 1319.92 682.96C1320.04 683.58 1320.15 684.27 1320.25 685.06C1320.56 687.54 1322.25 696.4 1322.25 696.4C1322.25 696.4 1330.24 700.27 1336.82 698.36C1343.4 696.45 1345.61 693.7 1345.61 693.7L1342.32 688.34C1343.2 686.13 1347.34 677.17 1348.64 670.9Z" fill="white"/>
<path d="M1343.21 686.229C1343.13 686.419 1336.59 689.929 1334.65 690.459C1337.71 690.309 1340.26 689.589 1342.32 688.339L1343.21 686.229Z" fill="#3399FF"/>
<path d="M1326.61 641.52C1326.61 641.52 1325.65 648.02 1327.98 651.84C1327.98 651.84 1328.85 649.25 1331.05 649.75C1333.26 650.25 1333.36 653.12 1331.82 654.75C1330.28 656.38 1328.57 655.79 1328.57 655.79C1328.57 655.79 1328.22 660.49 1328.04 664.43C1327.86 668.23 1326.8 676.96 1331.24 680.47C1335.67 683.98 1346.79 685.17 1352 677.88C1354.9 673.83 1351.05 666.67 1349.26 658.64C1347.61 651.26 1346.69 640.32 1338.85 638.56C1331.01 636.8 1326.61 641.52 1326.61 641.52Z" fill="#37474F"/>
</svg>
