<svg width="1135" height="903" viewBox="0 0 1135 903" fill="none" xmlns="http://www.w3.org/2000/svg">
<rect x="335" width="800" height="902" fill="url(#paint0_linear_107_108844)"/>
<g opacity="0.2">
<circle cx="227.254" cy="858.122" r="7.66322" transform="rotate(-10 227.254 858.122)" fill="white"/>
<circle cx="203.772" cy="864.414" r="7.66322" transform="rotate(-20 203.772 864.414)" fill="white"/>
<circle cx="181.738" cy="874.689" r="7.66322" transform="rotate(-30 181.738 874.689)" fill="white"/>
<circle cx="161.824" cy="888.633" r="7.66322" transform="rotate(-40 161.824 888.633)" fill="white"/>
<circle cx="144.633" cy="905.824" r="7.66322" transform="rotate(-50 144.633 905.824)" fill="white"/>
<circle cx="358.314" cy="905.824" r="7.66322" transform="rotate(50 358.314 905.824)" fill="white"/>
<circle cx="341.123" cy="888.633" r="7.66322" transform="rotate(40 341.123 888.633)" fill="white"/>
<circle cx="321.209" cy="874.689" r="7.66322" transform="rotate(30 321.209 874.689)" fill="white"/>
<circle cx="299.175" cy="864.414" r="7.66322" transform="rotate(20 299.175 864.414)" fill="white"/>
<circle cx="275.692" cy="858.122" r="7.66322" transform="rotate(10 275.692 858.122)" fill="white"/>
<circle cx="251.473" cy="856.003" r="7.66322" fill="white"/>
<circle cx="208.98" cy="841.049" r="6.89689" transform="rotate(-15 208.98 841.049)" fill="white"/>
<circle cx="182.81" cy="850.772" r="6.89689" transform="rotate(-25 182.81 850.772)" fill="white"/>
<circle cx="158.727" cy="864.895" r="6.89689" transform="rotate(-35 158.727 864.895)" fill="white"/>
<circle cx="137.461" cy="882.983" r="6.89689" transform="rotate(-45 137.461 882.983)" fill="white"/>
<circle cx="119.66" cy="904.491" r="6.89689" transform="rotate(-55 119.66 904.491)" fill="white"/>
<circle cx="382.052" cy="902.726" r="6.89689" transform="rotate(55 382.052 902.726)" fill="white"/>
<circle cx="363.963" cy="881.46" r="6.89689" transform="rotate(45 363.963 881.46)" fill="white"/>
<circle cx="342.456" cy="863.658" r="6.89689" transform="rotate(35 342.456 863.658)" fill="white"/>
<circle cx="318.184" cy="849.863" r="6.89689" transform="rotate(25 318.184 849.863)" fill="white"/>
<circle cx="291.886" cy="840.49" r="6.89689" transform="rotate(15 291.886 840.49)" fill="white"/>
<circle cx="264.359" cy="835.827" r="6.89689" transform="rotate(5 264.359 835.827)" fill="white"/>
<circle cx="236.441" cy="836.015" r="6.89689" transform="rotate(-5 236.441 836.015)" fill="white"/>
<circle cx="217.946" cy="817.743" r="6.13057" transform="rotate(-10 217.946 817.743)" fill="white"/>
<circle cx="187.593" cy="826.266" r="6.13057" transform="rotate(-20 187.593 826.266)" fill="white"/>
<circle cx="159.181" cy="839.928" r="6.13057" transform="rotate(-30 159.181 839.928)" fill="white"/>
<circle cx="133.573" cy="858.317" r="6.13057" transform="rotate(-40 133.573 858.317)" fill="white"/>
<circle cx="111.548" cy="880.875" r="6.13057" transform="rotate(-50 111.548 880.875)" fill="white"/>
<circle cx="93.7739" cy="906.914" r="6.13057" transform="rotate(-60 93.7739 906.914)" fill="white"/>
<circle cx="407.019" cy="903.181" r="6.13057" transform="rotate(60 407.019 903.181)" fill="white"/>
<circle cx="388.629" cy="877.573" r="6.13057" transform="rotate(50 388.629 877.573)" fill="white"/>
<circle cx="366.072" cy="855.547" r="6.13057" transform="rotate(40 366.072 855.547)" fill="white"/>
<circle cx="340.033" cy="837.773" r="6.13057" transform="rotate(30 340.033 837.773)" fill="white"/>
<circle cx="311.303" cy="824.791" r="6.13057" transform="rotate(20 311.303 824.791)" fill="white"/>
<circle cx="280.756" cy="816.995" r="6.13057" transform="rotate(10 280.756 816.995)" fill="white"/>
<circle cx="249.319" cy="814.621" r="6.13057" fill="white"/>
<circle cx="196.188" cy="801.636" r="5.36425" transform="rotate(-15 196.188 801.636)" fill="white"/>
<circle cx="163.368" cy="814.182" r="5.36425" transform="rotate(-25 163.368 814.182)" fill="white"/>
<circle cx="133.225" cy="832.233" r="5.36425" transform="rotate(-35 133.225 832.233)" fill="white"/>
<circle cx="106.676" cy="855.248" r="5.36425" transform="rotate(-45 106.676 855.248)" fill="white"/>
<circle cx="84.5247" cy="882.523" r="5.36425" transform="rotate(-55 84.5247 882.523)" fill="white"/>
<circle cx="432.767" cy="907.368" r="5.36425" transform="rotate(65 432.767 907.368)" fill="white"/>
<circle cx="414.713" cy="877.226" r="5.36425" transform="rotate(55 414.713 877.226)" fill="white"/>
<circle cx="391.7" cy="850.675" r="5.36425" transform="rotate(45 391.7 850.675)" fill="white"/>
<circle cx="364.425" cy="828.526" r="5.36425" transform="rotate(35 364.425 828.526)" fill="white"/>
<circle cx="333.719" cy="811.447" r="5.36425" transform="rotate(25 333.719 811.447)" fill="white"/>
<circle cx="300.514" cy="799.961" r="5.36425" transform="rotate(15 300.514 799.961)" fill="white"/>
<circle cx="265.819" cy="794.416" r="5.36425" transform="rotate(5 265.819 794.416)" fill="white"/>
<circle cx="230.687" cy="794.978" r="5.36425" transform="rotate(-5 230.687 794.978)" fill="white"/>
<circle cx="208.638" cy="777.365" r="4.59793" transform="rotate(-10 208.638 777.365)" fill="white"/>
<circle cx="171.415" cy="788.117" r="4.59793" transform="rotate(-20 171.415 788.117)" fill="white"/>
<circle cx="136.624" cy="805.169" r="4.59793" transform="rotate(-30 136.624 805.169)" fill="white"/>
<circle cx="105.322" cy="828.004" r="4.59793" transform="rotate(-40 105.322 828.004)" fill="white"/>
<circle cx="78.4621" cy="855.926" r="4.59793" transform="rotate(-50 78.4621 855.926)" fill="white"/>
<circle cx="56.8585" cy="888.09" r="4.59793" transform="rotate(-60 56.8585 888.09)" fill="white"/>
<circle cx="441.778" cy="880.625" r="4.59793" transform="rotate(60 441.778 880.625)" fill="white"/>
<circle cx="418.944" cy="849.322" r="4.59793" transform="rotate(50 418.944 849.322)" fill="white"/>
<circle cx="391.021" cy="822.462" r="4.59793" transform="rotate(40 391.021 822.462)" fill="white"/>
<circle cx="358.857" cy="800.858" r="4.59793" transform="rotate(30 358.857 800.858)" fill="white"/>
<circle cx="323.431" cy="785.168" r="4.59793" transform="rotate(20 323.431 785.168)" fill="white"/>
<circle cx="285.819" cy="775.867" r="4.59793" transform="rotate(10 285.819 775.867)" fill="white"/>
<circle cx="247.163" cy="773.24" r="4.59793" fill="white"/>
<circle cx="183.396" cy="762.222" r="3.83161" transform="rotate(-15 183.396 762.222)" fill="white"/>
<circle cx="143.926" cy="777.588" r="3.83161" transform="rotate(-25 143.926 777.588)" fill="white"/>
<circle cx="107.724" cy="799.573" r="3.83161" transform="rotate(-35 107.724 799.573)" fill="white"/>
<circle cx="75.8904" cy="827.511" r="3.83161" transform="rotate(-45 75.8904 827.511)" fill="white"/>
<circle cx="49.3916" cy="860.551" r="3.83161" transform="rotate(-55 49.3916 860.551)" fill="white"/>
<circle cx="29.0324" cy="897.694" r="3.83161" transform="rotate(-65 29.0324 897.694)" fill="white"/>
<circle cx="469.36" cy="887.927" r="3.83161" transform="rotate(65 469.36 887.927)" fill="white"/>
<circle cx="447.375" cy="851.724" r="3.83161" transform="rotate(55 447.375 851.724)" fill="white"/>
<circle cx="419.437" cy="819.89" r="3.83161" transform="rotate(45 419.437 819.89)" fill="white"/>
<circle cx="386.396" cy="793.391" r="3.83161" transform="rotate(35 386.396 793.391)" fill="white"/>
<circle cx="349.254" cy="773.032" r="3.83161" transform="rotate(25 349.254 773.032)" fill="white"/>
<circle cx="309.142" cy="759.432" r="3.83161" transform="rotate(15 309.142 759.432)" fill="white"/>
<circle cx="267.278" cy="753.005" r="3.83161" transform="rotate(5 267.278 753.005)" fill="white"/>
<circle cx="224.934" cy="753.947" r="3.83161" transform="rotate(-5 224.934 753.947)" fill="white"/>
</g>
<g opacity="0.2">
<circle cx="1105.69" cy="-1.79139" r="7.66322" transform="rotate(-120 1105.69 -1.79139)" fill="white"/>
<circle cx="1119.63" cy="18.1237" r="7.66322" transform="rotate(-130 1119.63 18.1237)" fill="white"/>
<circle cx="1136.82" cy="35.3142" r="7.66322" transform="rotate(-140 1136.82 35.3142)" fill="white"/>
<circle cx="1081.77" cy="-2.8637" r="6.89689" transform="rotate(-115 1081.77 -2.8637)" fill="white"/>
<circle cx="1095.9" cy="21.2207" r="6.89689" transform="rotate(-125 1095.9 21.2207)" fill="white"/>
<circle cx="1113.98" cy="42.4866" r="6.89689" transform="rotate(-135 1113.98 42.4866)" fill="white"/>
<circle cx="1135.49" cy="60.2881" r="6.89689" transform="rotate(-145 1135.49 60.2881)" fill="white"/>
<circle cx="1057.27" cy="-7.64669" r="6.13057" transform="rotate(-110 1057.27 -7.64669)" fill="white"/>
<circle cx="1070.93" cy="20.7661" r="6.13057" transform="rotate(-120 1070.93 20.7661)" fill="white"/>
<circle cx="1089.32" cy="46.3738" r="6.13057" transform="rotate(-130 1089.32 46.3738)" fill="white"/>
<circle cx="1111.88" cy="68.4002" r="6.13057" transform="rotate(-140 1111.88 68.4002)" fill="white"/>
<circle cx="1137.91" cy="86.1733" r="6.13057" transform="rotate(-150 1137.91 86.1733)" fill="white"/>
<circle cx="1045.18" cy="16.5793" r="5.36425" transform="rotate(-115 1045.18 16.5793)" fill="white"/>
<circle cx="1063.23" cy="46.7214" r="5.36425" transform="rotate(-125 1063.23 46.7214)" fill="white"/>
<circle cx="1086.25" cy="73.2722" r="5.36425" transform="rotate(-135 1086.25 73.2722)" fill="white"/>
<circle cx="1113.52" cy="95.4216" r="5.36425" transform="rotate(-145 1113.52 95.4216)" fill="white"/>
<circle cx="1019.12" cy="8.53353" r="4.59793" transform="rotate(-110 1019.12 8.53353)" fill="white"/>
<circle cx="1036.17" cy="43.3236" r="4.59793" transform="rotate(-120 1036.17 43.3236)" fill="white"/>
<circle cx="1059" cy="74.6258" r="4.59793" transform="rotate(-130 1059 74.6258)" fill="white"/>
<circle cx="1086.93" cy="101.486" r="4.59793" transform="rotate(-140 1086.93 101.486)" fill="white"/>
<circle cx="1119.09" cy="123.088" r="4.59793" transform="rotate(-150 1119.09 123.088)" fill="white"/>
<circle cx="993.222" cy="-3.44762" r="3.83161" transform="rotate(-105 993.222 -3.44762)" fill="white"/>
<circle cx="1008.59" cy="36.0223" r="3.83161" transform="rotate(-115 1008.59 36.0223)" fill="white"/>
<circle cx="1030.57" cy="72.2242" r="3.83161" transform="rotate(-125 1030.57 72.2242)" fill="white"/>
<circle cx="1058.51" cy="104.058" r="3.83161" transform="rotate(-135 1058.51 104.058)" fill="white"/>
<circle cx="1091.55" cy="130.557" r="3.83161" transform="rotate(-145 1091.55 130.557)" fill="white"/>
<circle cx="1128.69" cy="150.915" r="3.83161" transform="rotate(-155 1128.69 150.915)" fill="white"/>
</g>
<defs>
<linearGradient id="paint0_linear_107_108844" x1="335" y1="902" x2="1185.5" y2="50.4382" gradientUnits="userSpaceOnUse">
<stop stop-color="#3CA2FF"/>
<stop offset="1" stop-color="#00B2FF"/>
</linearGradient>
</defs>
</svg>
