<svg width="800" height="850" viewBox="0 0 800 850" fill="none" xmlns="http://www.w3.org/2000/svg">
<g clip-path="url(#clip0_2387_165576)">
<g opacity="0.2">
<circle cx="31.072" cy="855.547" r="6.13057" transform="rotate(40 31.072 855.547)" fill="white"/>
<circle cx="5.03301" cy="837.773" r="6.13057" transform="rotate(30 5.03301 837.773)" fill="white"/>
<circle cx="56.7002" cy="850.675" r="5.36425" transform="rotate(45 56.7002 850.675)" fill="white"/>
<circle cx="29.4257" cy="828.526" r="5.36425" transform="rotate(35 29.4257 828.526)" fill="white"/>
<path d="M0.0163076 806.242C1.1784 806.531 2.21019 807.201 2.94733 808.145C3.68448 809.089 4.08457 810.253 4.08388 811.45C4.08319 812.648 3.68177 813.811 2.94354 814.754C2.20531 815.697 1.17275 816.366 0.0103298 816.654L-1.28037 811.447L0.0163076 806.242Z" fill="white"/>
<circle cx="83.943" cy="849.322" r="4.59793" transform="rotate(50 83.943 849.322)" fill="white"/>
<circle cx="56.0208" cy="822.462" r="4.59793" transform="rotate(40 56.0208 822.462)" fill="white"/>
<circle cx="23.8568" cy="800.858" r="4.59793" transform="rotate(30 23.8568 800.858)" fill="white"/>
<circle cx="112.374" cy="851.724" r="3.83161" transform="rotate(55 112.374 851.724)" fill="white"/>
<circle cx="84.4365" cy="819.89" r="3.83161" transform="rotate(45 84.4365 819.89)" fill="white"/>
<circle cx="51.396" cy="793.391" r="3.83161" transform="rotate(35 51.396 793.391)" fill="white"/>
<circle cx="14.2547" cy="773.031" r="3.83161" transform="rotate(25 14.2547 773.031)" fill="white"/>
</g>
<g opacity="0.2">
<circle cx="770.689" cy="-1.79139" r="7.66322" transform="rotate(-120 770.689 -1.79139)" fill="white"/>
<circle cx="784.633" cy="18.1237" r="7.66322" transform="rotate(-130 784.633 18.1237)" fill="white"/>
<circle cx="801.824" cy="35.3142" r="7.66322" transform="rotate(-140 801.824 35.3142)" fill="white"/>
<circle cx="746.773" cy="-2.8637" r="6.89689" transform="rotate(-115 746.773 -2.8637)" fill="white"/>
<circle cx="760.896" cy="21.2207" r="6.89689" transform="rotate(-125 760.896 21.2207)" fill="white"/>
<circle cx="778.984" cy="42.4866" r="6.89689" transform="rotate(-135 778.984 42.4866)" fill="white"/>
<circle cx="800.492" cy="60.2881" r="6.89689" transform="rotate(-145 800.492 60.2881)" fill="white"/>
<circle cx="735.929" cy="20.7661" r="6.13057" transform="rotate(-120 735.929 20.7661)" fill="white"/>
<circle cx="754.318" cy="46.3748" r="6.13057" transform="rotate(-130 754.318 46.3748)" fill="white"/>
<circle cx="776.876" cy="68.4002" r="6.13057" transform="rotate(-140 776.876 68.4002)" fill="white"/>
<circle cx="802.915" cy="86.1743" r="6.13057" transform="rotate(-150 802.915 86.1743)" fill="white"/>
<circle cx="710.181" cy="16.5803" r="5.36425" transform="rotate(-115 710.181 16.5803)" fill="white"/>
<circle cx="728.234" cy="46.7224" r="5.36425" transform="rotate(-125 728.234 46.7224)" fill="white"/>
<circle cx="751.248" cy="73.2722" r="5.36425" transform="rotate(-135 751.248 73.2722)" fill="white"/>
<circle cx="778.523" cy="95.4216" r="5.36425" transform="rotate(-145 778.523 95.4216)" fill="white"/>
<circle cx="684.117" cy="8.53353" r="4.59793" transform="rotate(-110 684.117 8.53353)" fill="white"/>
<circle cx="701.169" cy="43.3236" r="4.59793" transform="rotate(-120 701.169 43.3236)" fill="white"/>
<circle cx="724.004" cy="74.6248" r="4.59793" transform="rotate(-130 724.004 74.6248)" fill="white"/>
<circle cx="751.927" cy="101.485" r="4.59793" transform="rotate(-140 751.927 101.485)" fill="white"/>
<circle cx="784.09" cy="123.088" r="4.59793" transform="rotate(-150 784.09 123.088)" fill="white"/>
<circle cx="673.587" cy="36.0214" r="3.83161" transform="rotate(-115 673.587 36.0214)" fill="white"/>
<circle cx="695.573" cy="72.2242" r="3.83161" transform="rotate(-125 695.573 72.2242)" fill="white"/>
<circle cx="723.511" cy="104.057" r="3.83161" transform="rotate(-135 723.511 104.057)" fill="white"/>
<circle cx="756.552" cy="130.556" r="3.83161" transform="rotate(-145 756.552 130.556)" fill="white"/>
<circle cx="793.694" cy="150.915" r="3.83161" transform="rotate(-155 793.694 150.915)" fill="white"/>
</g>
</g>
<defs>
<clipPath id="clip0_2387_165576">
<rect width="800" height="850" fill="white"/>
</clipPath>
</defs>
</svg>
